<mxfile host="65bd71144e" modified="2021-03-13T06:26:54.274Z" agent="5.0 (Windows NT 10.0; Win64; x64) AppleWebKit/537.36 (KHTML, like Gecko) Code/1.54.1 Chrome/87.0.4280.141 Electron/11.3.0 Safari/537.36" etag="7xc33ysuCZx5VujMOp5e" version="14.2.4" type="embed" pages="6">
    <diagram name="Delete Suggestion" id="B7EFP3EWl94D-vtmccsW">
        <mxGraphModel dx="1126" dy="790" grid="1" gridSize="10" guides="1" tooltips="1" connect="1" arrows="1" fold="1" page="0" pageScale="1" pageWidth="827" pageHeight="1169" math="0" shadow="0">
            <root>
                <mxCell id="sZ88oLwjSva6rSQL01Wd-0"/>
                <mxCell id="sZ88oLwjSva6rSQL01Wd-1" parent="sZ88oLwjSva6rSQL01Wd-0"/>
                <mxCell id="z4wJhyvA13ecxmIJU1BY-3" style="edgeStyle=orthogonalEdgeStyle;rounded=0;orthogonalLoop=1;jettySize=auto;html=1;noEdgeStyle=1;orthogonal=1;" edge="1" parent="sZ88oLwjSva6rSQL01Wd-1" source="z4wJhyvA13ecxmIJU1BY-1" target="z4wJhyvA13ecxmIJU1BY-2">
                    <mxGeometry relative="1" as="geometry">
                        <Array as="points">
                            <mxPoint x="60" y="72"/>
                            <mxPoint x="60" y="148"/>
                        </Array>
                    </mxGeometry>
                </mxCell>
                <mxCell id="z4wJhyvA13ecxmIJU1BY-1" value="ブックマークソート時" style="shape=process;whiteSpace=wrap;html=1;backgroundOutline=1;" vertex="1" parent="sZ88oLwjSva6rSQL01Wd-1">
                    <mxGeometry width="120" height="60" as="geometry"/>
                </mxCell>
                <mxCell id="z4wJhyvA13ecxmIJU1BY-5" value="表示" style="edgeStyle=orthogonalEdgeStyle;rounded=0;orthogonalLoop=1;jettySize=auto;html=1;noEdgeStyle=1;orthogonal=1;" edge="1" parent="sZ88oLwjSva6rSQL01Wd-1" source="z4wJhyvA13ecxmIJU1BY-2" target="z4wJhyvA13ecxmIJU1BY-4">
                    <mxGeometry relative="1" as="geometry">
                        <Array as="points">
                            <mxPoint x="60" y="232"/>
                            <mxPoint x="60" y="308"/>
                        </Array>
                    </mxGeometry>
                </mxCell>
                <mxCell id="z4wJhyvA13ecxmIJU1BY-2" value="削除提案範囲のブックマークをカウント" style="shape=process;whiteSpace=wrap;html=1;backgroundOutline=1;" vertex="1" parent="sZ88oLwjSva6rSQL01Wd-1">
                    <mxGeometry y="160" width="120" height="60" as="geometry"/>
                </mxCell>
                <mxCell id="z4wJhyvA13ecxmIJU1BY-4" value="バッジ" style="ellipse;whiteSpace=wrap;html=1;aspect=fixed;" vertex="1" parent="sZ88oLwjSva6rSQL01Wd-1">
                    <mxGeometry x="20" y="320" width="80" height="80" as="geometry"/>
                </mxCell>
                <mxCell id="z4wJhyvA13ecxmIJU1BY-6" value="削除提案範囲のブックマークの情報を動的に表示" style="shape=process;whiteSpace=wrap;html=1;backgroundOutline=1;" vertex="1" parent="sZ88oLwjSva6rSQL01Wd-1">
                    <mxGeometry x="180" y="200" width="120" height="60" as="geometry"/>
                </mxCell>
                <mxCell id="z4wJhyvA13ecxmIJU1BY-8" style="edgeStyle=orthogonalEdgeStyle;rounded=0;orthogonalLoop=1;jettySize=auto;html=1;noEdgeStyle=1;orthogonal=1;" edge="1" parent="sZ88oLwjSva6rSQL01Wd-1" source="z4wJhyvA13ecxmIJU1BY-7" target="z4wJhyvA13ecxmIJU1BY-6">
                    <mxGeometry relative="1" as="geometry">
                        <Array as="points">
                            <mxPoint x="240" y="112"/>
                            <mxPoint x="240" y="188"/>
                        </Array>
                    </mxGeometry>
                </mxCell>
                <mxCell id="z4wJhyvA13ecxmIJU1BY-7" value="削除提案画面をOpen" style="shape=note;whiteSpace=wrap;html=1;backgroundOutline=1;darkOpacity=0.05;" vertex="1" parent="sZ88oLwjSva6rSQL01Wd-1">
                    <mxGeometry x="200" width="80" height="100" as="geometry"/>
                </mxCell>
            </root>
        </mxGraphModel>
    </diagram>
    <diagram name="storage" id="58F00zRcIBFb2UCwRBtE">
        <mxGraphModel dx="1526" dy="1190" grid="1" gridSize="10" guides="1" tooltips="1" connect="1" arrows="1" fold="1" page="0" pageScale="1" pageWidth="827" pageHeight="1169" math="0" shadow="0">
            <root>
                <mxCell id="7rwBgxl0delBKILii6xo-0"/>
                <mxCell id="7rwBgxl0delBKILii6xo-1" parent="7rwBgxl0delBKILii6xo-0"/>
                <mxCell id="7rwBgxl0delBKILii6xo-2" style="edgeStyle=orthogonalEdgeStyle;rounded=0;orthogonalLoop=1;jettySize=auto;html=1;noEdgeStyle=1;orthogonal=1;exitX=1;exitY=0;exitDx=0;exitDy=15;exitPerimeter=0;" parent="7rwBgxl0delBKILii6xo-1" source="7rwBgxl0delBKILii6xo-4" target="7rwBgxl0delBKILii6xo-9" edge="1">
                    <mxGeometry relative="1" as="geometry"/>
                </mxCell>
                <mxCell id="7rwBgxl0delBKILii6xo-3" value="onChanged発火時&lt;br&gt;起動時&lt;br&gt;popup時(1)" style="edgeLabel;html=1;align=center;verticalAlign=middle;resizable=0;points=[];horizontal=1;" parent="7rwBgxl0delBKILii6xo-2" vertex="1" connectable="0">
                    <mxGeometry x="-0.1357" y="-3" relative="1" as="geometry">
                        <mxPoint x="15.999999999999996" y="-2.9999999999999982" as="offset"/>
                    </mxGeometry>
                </mxCell>
                <mxCell id="7rwBgxl0delBKILii6xo-4" value="storage" style="shape=cylinder3;whiteSpace=wrap;html=1;boundedLbl=1;backgroundOutline=1;size=15;" parent="7rwBgxl0delBKILii6xo-1" vertex="1">
                    <mxGeometry x="-120" width="80" height="80" as="geometry"/>
                </mxCell>
                <mxCell id="7rwBgxl0delBKILii6xo-5" value="option画面にて設定変更時(1)" style="edgeStyle=orthogonalEdgeStyle;rounded=0;orthogonalLoop=1;jettySize=auto;html=1;noEdgeStyle=1;orthogonal=1;entryX=1;entryY=1;entryDx=0;entryDy=-15;entryPerimeter=0;" parent="7rwBgxl0delBKILii6xo-1" target="7rwBgxl0delBKILii6xo-9" edge="1">
                    <mxGeometry relative="1" as="geometry">
                        <mxPoint x="520" y="65" as="sourcePoint"/>
                    </mxGeometry>
                </mxCell>
                <mxCell id="7rwBgxl0delBKILii6xo-7" value="popup時(2)" style="edgeStyle=orthogonalEdgeStyle;rounded=0;orthogonalLoop=1;jettySize=auto;html=1;noEdgeStyle=1;orthogonal=1;exitX=1;exitY=0;exitDx=0;exitDy=15;exitPerimeter=0;" parent="7rwBgxl0delBKILii6xo-1" source="7rwBgxl0delBKILii6xo-9" edge="1">
                    <mxGeometry relative="1" as="geometry">
                        <mxPoint as="offset"/>
                        <mxPoint x="520" y="15" as="targetPoint"/>
                    </mxGeometry>
                </mxCell>
                <mxCell id="7rwBgxl0delBKILii6xo-8" value="Bookmarkソート時" style="edgeStyle=orthogonalEdgeStyle;rounded=0;orthogonalLoop=1;jettySize=auto;html=1;" parent="7rwBgxl0delBKILii6xo-1" source="7rwBgxl0delBKILii6xo-9" target="7rwBgxl0delBKILii6xo-13" edge="1">
                    <mxGeometry relative="1" as="geometry"/>
                </mxCell>
                <mxCell id="7rwBgxl0delBKILii6xo-17" value="option画面にて設定変更時(3)" style="edgeStyle=orthogonalEdgeStyle;rounded=0;orthogonalLoop=1;jettySize=auto;html=1;entryX=1;entryY=1;entryDx=0;entryDy=-15;entryPerimeter=0;exitX=0;exitY=1;exitDx=0;exitDy=-15;exitPerimeter=0;" parent="7rwBgxl0delBKILii6xo-1" source="7rwBgxl0delBKILii6xo-9" target="7rwBgxl0delBKILii6xo-4" edge="1">
                    <mxGeometry relative="1" as="geometry"/>
                </mxCell>
                <mxCell id="7rwBgxl0delBKILii6xo-9" value="constat&lt;br&gt;(background)" style="shape=cylinder3;whiteSpace=wrap;html=1;boundedLbl=1;backgroundOutline=1;size=15;" parent="7rwBgxl0delBKILii6xo-1" vertex="1">
                    <mxGeometry x="200" width="80" height="80" as="geometry"/>
                </mxCell>
                <mxCell id="7rwBgxl0delBKILii6xo-12" value="optionページ表示" style="shape=note;whiteSpace=wrap;html=1;backgroundOutline=1;darkOpacity=0.05;" parent="7rwBgxl0delBKILii6xo-1" vertex="1">
                    <mxGeometry x="520" y="-10" width="80" height="100" as="geometry"/>
                </mxCell>
                <mxCell id="7rwBgxl0delBKILii6xo-13" value="Bookmarkソート処理" style="shape=process;whiteSpace=wrap;html=1;backgroundOutline=1;" parent="7rwBgxl0delBKILii6xo-1" vertex="1">
                    <mxGeometry x="160" y="280" width="160" height="80" as="geometry"/>
                </mxCell>
                <mxCell id="7rwBgxl0delBKILii6xo-14" value="storage→constant（background) 処理" style="rounded=0;whiteSpace=wrap;html=1;" parent="7rwBgxl0delBKILii6xo-1" vertex="1">
                    <mxGeometry y="-120" width="160" height="80" as="geometry"/>
                </mxCell>
                <mxCell id="7rwBgxl0delBKILii6xo-15" value="constat (background) → constat (popup) 処理" style="rounded=0;whiteSpace=wrap;html=1;" parent="7rwBgxl0delBKILii6xo-1" vertex="1">
                    <mxGeometry x="320" y="-120" width="160" height="80" as="geometry"/>
                </mxCell>
                <mxCell id="7rwBgxl0delBKILii6xo-16" value="constat (popup)&amp;nbsp;→&amp;nbsp;storage&lt;br&gt;&amp;nbsp;処理" style="rounded=0;whiteSpace=wrap;html=1;" parent="7rwBgxl0delBKILii6xo-1" vertex="1">
                    <mxGeometry y="120" width="160" height="80" as="geometry"/>
                </mxCell>
                <mxCell id="7rwBgxl0delBKILii6xo-19" value="constat (popup) → constat (background) 処理" style="rounded=0;whiteSpace=wrap;html=1;" parent="7rwBgxl0delBKILii6xo-1" vertex="1">
                    <mxGeometry x="320" y="120" width="160" height="80" as="geometry"/>
                </mxCell>
            </root>
        </mxGraphModel>
    </diagram>
    <diagram id="y0uw9rWYx2l4yKTMAj4F" name="Class diagram">
        &#xa;
        <mxGraphModel dx="1114" dy="790" grid="1" gridSize="10" guides="1" tooltips="1" connect="1" arrows="1" fold="1" page="0" pageScale="1" pageWidth="827" pageHeight="1169" math="0" shadow="0">
            &#xa;
            <root>
                &#xa;
                <mxCell id="VcfuuTx357C6deGKTtjn-0"/>
                &#xa;
                <mxCell id="VcfuuTx357C6deGKTtjn-1" parent="VcfuuTx357C6deGKTtjn-0"/>
                &#xa;
                <mxCell id="2i-e0H_Hf7XHh9N_RgGq-8" style="edgeStyle=orthogonalEdgeStyle;rounded=0;orthogonalLoop=1;jettySize=auto;html=1;startArrow=none;startFill=0;endArrow=classic;endFill=1;noEdgeStyle=1;orthogonal=1;" parent="VcfuuTx357C6deGKTtjn-1" source="MZ_huUYpxMiRR9woeEHV-0" target="Ddwmpe-TnMiRihkDGdO9-0" edge="1">
                    &#xa;
                    <mxGeometry relative="1" as="geometry">
                        &#xa;
                        <Array as="points">
                            &#xa;
                            <mxPoint x="40" y="292"/>
                            &#xa;
                            <mxPoint x="40" y="330"/>
                            &#xa;
                            <mxPoint x="40" y="530"/>
                            &#xa;
                            <mxPoint x="40" y="530"/>
                            &#xa;
                            <mxPoint x="40" y="730"/>
                            &#xa;
                            <mxPoint x="72.5" y="768"/>
                            &#xa;
                        </Array>
                        &#xa;
                    </mxGeometry>
                    &#xa;
                </mxCell>
                &#xa;
                <mxCell id="MZ_huUYpxMiRR9woeEHV-0" value="trigger.js" style="shape=note;whiteSpace=wrap;html=1;backgroundOutline=1;darkOpacity=0.05;" parent="VcfuuTx357C6deGKTtjn-1" vertex="1">
                    &#xa;
                    <mxGeometry y="180" width="80" height="100" as="geometry"/>
                    &#xa;
                </mxCell>
                &#xa;
                <mxCell id="2i-e0H_Hf7XHh9N_RgGq-0" style="edgeStyle=orthogonalEdgeStyle;rounded=0;orthogonalLoop=1;jettySize=auto;html=1;noEdgeStyle=1;orthogonal=1;" parent="VcfuuTx357C6deGKTtjn-1" source="MZ_huUYpxMiRR9woeEHV-1" target="xda8yOPGz0SYs2gmApcZ-0" edge="1">
                    &#xa;
                    <mxGeometry relative="1" as="geometry">
                        &#xa;
                        <Array as="points">
                            &#xa;
                            <mxPoint x="135" y="1092"/>
                            &#xa;
                            <mxPoint x="165" y="1168"/>
                            &#xa;
                        </Array>
                        &#xa;
                    </mxGeometry>
                    &#xa;
                </mxCell>
                &#xa;
                <mxCell id="2i-e0H_Hf7XHh9N_RgGq-1" style="edgeStyle=orthogonalEdgeStyle;rounded=0;orthogonalLoop=1;jettySize=auto;html=1;noEdgeStyle=1;orthogonal=1;" parent="VcfuuTx357C6deGKTtjn-1" source="MZ_huUYpxMiRR9woeEHV-1" target="xda8yOPGz0SYs2gmApcZ-1" edge="1">
                    &#xa;
                    <mxGeometry relative="1" as="geometry">
                        &#xa;
                        <Array as="points">
                            &#xa;
                            <mxPoint x="100" y="1092"/>
                            &#xa;
                            <mxPoint x="55" y="1168"/>
                            &#xa;
                        </Array>
                        &#xa;
                    </mxGeometry>
                    &#xa;
                </mxCell>
                &#xa;
                <mxCell id="MZ_huUYpxMiRR9woeEHV-1" value="observer.js" style="shape=note;whiteSpace=wrap;html=1;backgroundOutline=1;darkOpacity=0.05;" parent="VcfuuTx357C6deGKTtjn-1" vertex="1">
                    &#xa;
                    <mxGeometry x="77.5" y="980" width="80" height="100" as="geometry"/>
                    &#xa;
                </mxCell>
                &#xa;
                <mxCell id="5nhEzTgo1R7D6BdqEd6k-8" style="edgeStyle=orthogonalEdgeStyle;rounded=0;orthogonalLoop=1;jettySize=auto;html=1;noEdgeStyle=1;orthogonal=1;dashed=1;" parent="VcfuuTx357C6deGKTtjn-1" source="Ddwmpe-TnMiRihkDGdO9-0" target="MZ_huUYpxMiRR9woeEHV-1" edge="1">
                    &#xa;
                    <mxGeometry relative="1" as="geometry">
                        &#xa;
                        <Array as="points">
                            &#xa;
                            <mxPoint x="90" y="892"/>
                            &#xa;
                            <mxPoint x="100" y="968"/>
                            &#xa;
                        </Array>
                        &#xa;
                    </mxGeometry>
                    &#xa;
                </mxCell>
                &#xa;
                <mxCell id="Ddwmpe-TnMiRihkDGdO9-0" value="constant.js" style="shape=note;whiteSpace=wrap;html=1;backgroundOutline=1;darkOpacity=0.05;" parent="VcfuuTx357C6deGKTtjn-1" vertex="1">
                    &#xa;
                    <mxGeometry x="50" y="780" width="80" height="100" as="geometry"/>
                    &#xa;
                </mxCell>
                &#xa;
                <mxCell id="xda8yOPGz0SYs2gmApcZ-0" value="bookmark&lt;br&gt;sorter.js" style="shape=note;whiteSpace=wrap;html=1;backgroundOutline=1;darkOpacity=0.05;" parent="VcfuuTx357C6deGKTtjn-1" vertex="1">
                    &#xa;
                    <mxGeometry x="125" y="1180" width="80" height="100" as="geometry"/>
                    &#xa;
                </mxCell>
                &#xa;
                <mxCell id="5nhEzTgo1R7D6BdqEd6k-10" style="edgeStyle=orthogonalEdgeStyle;rounded=0;orthogonalLoop=1;jettySize=auto;html=1;noEdgeStyle=1;orthogonal=1;" parent="VcfuuTx357C6deGKTtjn-1" source="xda8yOPGz0SYs2gmApcZ-1" target="5nhEzTgo1R7D6BdqEd6k-9" edge="1">
                    &#xa;
                    <mxGeometry relative="1" as="geometry">
                        &#xa;
                        <Array as="points">
                            &#xa;
                            <mxPoint x="55" y="1292"/>
                            &#xa;
                            <mxPoint x="55" y="1368"/>
                            &#xa;
                        </Array>
                        &#xa;
                    </mxGeometry>
                    &#xa;
                </mxCell>
                &#xa;
                <mxCell id="xda8yOPGz0SYs2gmApcZ-1" value="aggregate.js" style="shape=note;whiteSpace=wrap;html=1;backgroundOutline=1;darkOpacity=0.05;" parent="VcfuuTx357C6deGKTtjn-1" vertex="1">
                    &#xa;
                    <mxGeometry x="15" y="1180" width="80" height="100" as="geometry"/>
                    &#xa;
                </mxCell>
                &#xa;
                <mxCell id="5nhEzTgo1R7D6BdqEd6k-2" style="edgeStyle=orthogonalEdgeStyle;rounded=0;orthogonalLoop=1;jettySize=auto;html=1;noEdgeStyle=1;orthogonal=1;" parent="VcfuuTx357C6deGKTtjn-1" source="5nhEzTgo1R7D6BdqEd6k-0" target="5nhEzTgo1R7D6BdqEd6k-1" edge="1">
                    &#xa;
                    <mxGeometry relative="1" as="geometry">
                        &#xa;
                        <Array as="points">
                            &#xa;
                            <mxPoint x="110" y="492"/>
                            &#xa;
                            <mxPoint x="110" y="568"/>
                            &#xa;
                        </Array>
                        &#xa;
                    </mxGeometry>
                    &#xa;
                </mxCell>
                &#xa;
                <mxCell id="5nhEzTgo1R7D6BdqEd6k-0" value="option&lt;br&gt;/sender.js" style="shape=note;whiteSpace=wrap;html=1;backgroundOutline=1;darkOpacity=0.05;" parent="VcfuuTx357C6deGKTtjn-1" vertex="1">
                    &#xa;
                    <mxGeometry x="70" y="380" width="80" height="100" as="geometry"/>
                    &#xa;
                </mxCell>
                &#xa;
                <mxCell id="5nhEzTgo1R7D6BdqEd6k-3" style="edgeStyle=orthogonalEdgeStyle;rounded=0;orthogonalLoop=1;jettySize=auto;html=1;noEdgeStyle=1;orthogonal=1;" parent="VcfuuTx357C6deGKTtjn-1" source="5nhEzTgo1R7D6BdqEd6k-1" target="Ddwmpe-TnMiRihkDGdO9-0" edge="1">
                    &#xa;
                    <mxGeometry relative="1" as="geometry">
                        &#xa;
                        <Array as="points">
                            &#xa;
                            <mxPoint x="110" y="692"/>
                            &#xa;
                            <mxPoint x="107.5" y="768"/>
                            &#xa;
                        </Array>
                        &#xa;
                    </mxGeometry>
                    &#xa;
                </mxCell>
                &#xa;
                <mxCell id="5nhEzTgo1R7D6BdqEd6k-1" value="option&lt;br&gt;/receiver.js" style="shape=note;whiteSpace=wrap;html=1;backgroundOutline=1;darkOpacity=0.05;" parent="VcfuuTx357C6deGKTtjn-1" vertex="1">
                    &#xa;
                    <mxGeometry x="70" y="580" width="80" height="100" as="geometry"/>
                    &#xa;
                </mxCell>
                &#xa;
                <mxCell id="5nhEzTgo1R7D6BdqEd6k-5" style="edgeStyle=orthogonalEdgeStyle;rounded=0;orthogonalLoop=1;jettySize=auto;html=1;noEdgeStyle=1;orthogonal=1;" parent="VcfuuTx357C6deGKTtjn-1" source="5nhEzTgo1R7D6BdqEd6k-4" target="MZ_huUYpxMiRR9woeEHV-0" edge="1">
                    &#xa;
                    <mxGeometry relative="1" as="geometry">
                        &#xa;
                        <Array as="points">
                            &#xa;
                            <mxPoint x="113.33333333333333" y="92"/>
                            &#xa;
                            <mxPoint x="40" y="168"/>
                            &#xa;
                        </Array>
                        &#xa;
                    </mxGeometry>
                    &#xa;
                </mxCell>
                &#xa;
                <mxCell id="5nhEzTgo1R7D6BdqEd6k-6" style="edgeStyle=orthogonalEdgeStyle;rounded=0;orthogonalLoop=1;jettySize=auto;html=1;noEdgeStyle=1;orthogonal=1;" parent="VcfuuTx357C6deGKTtjn-1" source="5nhEzTgo1R7D6BdqEd6k-4" target="MZ_huUYpxMiRR9woeEHV-1" edge="1">
                    &#xa;
                    <mxGeometry relative="1" as="geometry">
                        &#xa;
                        <Array as="points">
                            &#xa;
                            <mxPoint x="186.66666666666666" y="92"/>
                            &#xa;
                            <mxPoint x="220" y="130"/>
                            &#xa;
                            <mxPoint x="220" y="330"/>
                            &#xa;
                            <mxPoint x="220" y="330"/>
                            &#xa;
                            <mxPoint x="220" y="530"/>
                            &#xa;
                            <mxPoint x="220" y="530"/>
                            &#xa;
                            <mxPoint x="220" y="730"/>
                            &#xa;
                            <mxPoint x="220" y="730"/>
                            &#xa;
                            <mxPoint x="220" y="930"/>
                            &#xa;
                            <mxPoint x="135" y="968"/>
                            &#xa;
                        </Array>
                        &#xa;
                    </mxGeometry>
                    &#xa;
                </mxCell>
                &#xa;
                <mxCell id="5nhEzTgo1R7D6BdqEd6k-7" style="edgeStyle=orthogonalEdgeStyle;rounded=0;orthogonalLoop=1;jettySize=auto;html=1;noEdgeStyle=1;orthogonal=1;" parent="VcfuuTx357C6deGKTtjn-1" source="5nhEzTgo1R7D6BdqEd6k-11" target="5nhEzTgo1R7D6BdqEd6k-0" edge="1">
                    &#xa;
                    <mxGeometry relative="1" as="geometry">
                        &#xa;
                        <Array as="points">
                            &#xa;
                            <mxPoint x="150" y="292"/>
                            &#xa;
                            <mxPoint x="110" y="368"/>
                            &#xa;
                        </Array>
                        &#xa;
                    </mxGeometry>
                    &#xa;
                </mxCell>
                &#xa;
                <mxCell id="5nhEzTgo1R7D6BdqEd6k-12" style="edgeStyle=orthogonalEdgeStyle;rounded=0;orthogonalLoop=1;jettySize=auto;html=1;noEdgeStyle=1;orthogonal=1;" parent="VcfuuTx357C6deGKTtjn-1" source="5nhEzTgo1R7D6BdqEd6k-4" target="5nhEzTgo1R7D6BdqEd6k-11" edge="1">
                    &#xa;
                    <mxGeometry relative="1" as="geometry">
                        &#xa;
                        <Array as="points">
                            &#xa;
                            <mxPoint x="150" y="94"/>
                            &#xa;
                            <mxPoint x="150" y="168"/>
                            &#xa;
                        </Array>
                        &#xa;
                    </mxGeometry>
                    &#xa;
                </mxCell>
                &#xa;
                <mxCell id="5nhEzTgo1R7D6BdqEd6k-4" value="base" style="ellipse;whiteSpace=wrap;html=1;" parent="VcfuuTx357C6deGKTtjn-1" vertex="1">
                    &#xa;
                    <mxGeometry x="90" width="120" height="80" as="geometry"/>
                    &#xa;
                </mxCell>
                &#xa;
                <mxCell id="5nhEzTgo1R7D6BdqEd6k-9" value="setVisitPoint.js" style="shape=note;whiteSpace=wrap;html=1;backgroundOutline=1;darkOpacity=0.05;" parent="VcfuuTx357C6deGKTtjn-1" vertex="1">
                    &#xa;
                    <mxGeometry x="2.5" y="1380" width="105" height="100" as="geometry"/>
                    &#xa;
                </mxCell>
                &#xa;
                <mxCell id="5nhEzTgo1R7D6BdqEd6k-11" value="option.html" style="shape=note;whiteSpace=wrap;html=1;backgroundOutline=1;darkOpacity=0.05;" parent="VcfuuTx357C6deGKTtjn-1" vertex="1">
                    &#xa;
                    <mxGeometry x="110" y="180" width="80" height="100" as="geometry"/>
                    &#xa;
                </mxCell>
                &#xa;
            </root>
            &#xa;
        </mxGraphModel>
        &#xa;
    </diagram>
    <diagram name="Flow Chart 2.3.5" id="TchEWKc1IP5hT97KWRJ3">
        &#xa;        &#xa;        &#xa;&#xa;&#xa;
        <mxGraphModel dx="1591" dy="1129" grid="1" gridSize="10" guides="1" tooltips="1" connect="1" arrows="1" fold="1" page="0" pageScale="1" pageWidth="827" pageHeight="1169" math="0" shadow="0">
            &#xa;            &#xa;            &#xa;&#xa;&#xa;
            <root>
                &#xa;                &#xa;                &#xa;&#xa;&#xa;
                <mxCell id="sz4gvAt_zWbiklJf3Lrj-0"/>
                &#xa;                &#xa;                &#xa;&#xa;&#xa;
                <mxCell id="sz4gvAt_zWbiklJf3Lrj-1" parent="sz4gvAt_zWbiklJf3Lrj-0"/>
                &#xa;                &#xa;                &#xa;&#xa;&#xa;
                <mxCell id="sz4gvAt_zWbiklJf3Lrj-2" style="edgeStyle=orthogonalEdgeStyle;rounded=0;orthogonalLoop=1;jettySize=auto;html=1;endArrow=classic;endFill=1;noEdgeStyle=1;orthogonal=1;exitX=1;exitY=0;exitDx=0;exitDy=0;" edge="1" parent="sz4gvAt_zWbiklJf3Lrj-1" source="sz4gvAt_zWbiklJf3Lrj-23" target="sz4gvAt_zWbiklJf3Lrj-7">
                    &#xa;                    &#xa;                    &#xa;&#xa;&#xa;
                    <mxGeometry relative="1" as="geometry">
                        &#xa;                        &#xa;                        &#xa;&#xa;&#xa;
                        <mxPoint x="617.5" y="580" as="sourcePoint"/>
                        &#xa;                        &#xa;                        &#xa;&#xa;&#xa;
                        <Array as="points">
                            &#xa;                            &#xa;                            &#xa;&#xa;&#xa;
                            <mxPoint x="451.25" y="1048"/>
                            &#xa;                            &#xa;                            &#xa;&#xa;&#xa;
                            <mxPoint x="680" y="1010"/>
                            &#xa;                            &#xa;                            &#xa;&#xa;&#xa;
                            <mxPoint x="680" y="850"/>
                            &#xa;                            &#xa;                            &#xa;&#xa;&#xa;
                            <mxPoint x="680" y="850"/>
                            &#xa;                            &#xa;                            &#xa;&#xa;&#xa;
                            <mxPoint x="680" y="690"/>
                            &#xa;                            &#xa;                            &#xa;&#xa;&#xa;
                            <mxPoint x="680" y="690"/>
                            &#xa;                            &#xa;                            &#xa;&#xa;&#xa;
                            <mxPoint x="680" y="530"/>
                            &#xa;                            &#xa;                            &#xa;&#xa;&#xa;
                            <mxPoint x="680" y="530"/>
                            &#xa;                            &#xa;                            &#xa;&#xa;&#xa;
                            <mxPoint x="680" y="240"/>
                            &#xa;                            &#xa;                            &#xa;&#xa;&#xa;
                            <mxPoint x="605" y="202"/>
                            &#xa;                            &#xa;                            &#xa;&#xa;&#xa;
                        </Array>
                        &#xa;                        &#xa;                        &#xa;&#xa;&#xa;
                    </mxGeometry>
                    &#xa;                    &#xa;                    &#xa;&#xa;&#xa;
                </mxCell>
                &#xa;                &#xa;                &#xa;&#xa;&#xa;
                <mxCell id="sz4gvAt_zWbiklJf3Lrj-3" value="&lt;span&gt;処理の種類・数&lt;/span&gt;" style="shape=cylinder3;whiteSpace=wrap;html=1;boundedLbl=1;backgroundOutline=1;size=15;" vertex="1" parent="sz4gvAt_zWbiklJf3Lrj-1">
                    &#xa;                    &#xa;                    &#xa;&#xa;&#xa;
                    <mxGeometry x="740" width="180" height="80" as="geometry"/>
                    &#xa;                    &#xa;                    &#xa;&#xa;&#xa;
                </mxCell>
                &#xa;                &#xa;                &#xa;&#xa;&#xa;
                <mxCell id="sz4gvAt_zWbiklJf3Lrj-4" style="edgeStyle=orthogonalEdgeStyle;rounded=0;orthogonalLoop=1;jettySize=auto;html=1;endArrow=classic;endFill=1;noEdgeStyle=1;orthogonal=1;" edge="1" parent="sz4gvAt_zWbiklJf3Lrj-1" source="sz4gvAt_zWbiklJf3Lrj-20" target="sz4gvAt_zWbiklJf3Lrj-27">
                    &#xa;                    &#xa;                    &#xa;&#xa;&#xa;
                    <mxGeometry relative="1" as="geometry">
                        &#xa;                        &#xa;                        &#xa;&#xa;&#xa;
                        <Array as="points">
                            &#xa;                            &#xa;                            &#xa;&#xa;&#xa;
                            <mxPoint x="545" y="492"/>
                            &#xa;                            &#xa;                            &#xa;&#xa;&#xa;
                            <mxPoint x="525" y="568"/>
                            &#xa;                            &#xa;                            &#xa;&#xa;&#xa;
                        </Array>
                        &#xa;                        &#xa;                        &#xa;&#xa;&#xa;
                        <mxPoint x="525" y="580" as="targetPoint"/>
                        &#xa;                        &#xa;                        &#xa;&#xa;&#xa;
                    </mxGeometry>
                    &#xa;                    &#xa;                    &#xa;&#xa;&#xa;
                </mxCell>
                &#xa;                &#xa;                &#xa;&#xa;&#xa;
                <mxCell id="sz4gvAt_zWbiklJf3Lrj-5" style="edgeStyle=orthogonalEdgeStyle;rounded=0;orthogonalLoop=1;jettySize=auto;html=1;endArrow=classic;endFill=1;noEdgeStyle=1;orthogonal=1;" edge="1" parent="sz4gvAt_zWbiklJf3Lrj-1" source="sz4gvAt_zWbiklJf3Lrj-7" target="sz4gvAt_zWbiklJf3Lrj-15">
                    &#xa;                    &#xa;                    &#xa;&#xa;&#xa;
                    <mxGeometry relative="1" as="geometry">
                        &#xa;                        &#xa;                        &#xa;&#xa;&#xa;
                        <Array as="points">
                            &#xa;                            &#xa;                            &#xa;&#xa;&#xa;
                            <mxPoint x="485" y="202"/>
                            &#xa;                            &#xa;                            &#xa;&#xa;&#xa;
                            <mxPoint x="315" y="278"/>
                            &#xa;                            &#xa;                            &#xa;&#xa;&#xa;
                        </Array>
                        &#xa;                        &#xa;                        &#xa;&#xa;&#xa;
                    </mxGeometry>
                    &#xa;                    &#xa;                    &#xa;&#xa;&#xa;
                </mxCell>
                &#xa;                &#xa;                &#xa;&#xa;&#xa;
                <mxCell id="sz4gvAt_zWbiklJf3Lrj-6" value="No" style="edgeLabel;html=1;align=center;verticalAlign=middle;resizable=0;points=[];" vertex="1" connectable="0" parent="sz4gvAt_zWbiklJf3Lrj-5">
                    &#xa;                    &#xa;                    &#xa;&#xa;&#xa;
                    <mxGeometry x="-0.3204" relative="1" as="geometry">
                        &#xa;                        &#xa;                        &#xa;&#xa;&#xa;
                        <mxPoint as="offset"/>
                        &#xa;                        &#xa;                        &#xa;&#xa;&#xa;
                    </mxGeometry>
                    &#xa;                    &#xa;                    &#xa;&#xa;&#xa;
                </mxCell>
                &#xa;                &#xa;                &#xa;&#xa;&#xa;
                <mxCell id="sz4gvAt_zWbiklJf3Lrj-7" value="処理の数&amp;gt;0&lt;br&gt;&amp;amp;&lt;br&gt;処理実行フラグ=false" style="rhombus;whiteSpace=wrap;html=1;" vertex="1" parent="sz4gvAt_zWbiklJf3Lrj-1">
                    &#xa;                    &#xa;                    &#xa;&#xa;&#xa;
                    <mxGeometry x="450" width="190" height="190" as="geometry"/>
                    &#xa;                    &#xa;                    &#xa;&#xa;&#xa;
                </mxCell>
                &#xa;                &#xa;                &#xa;&#xa;&#xa;
                <mxCell id="sz4gvAt_zWbiklJf3Lrj-8" style="edgeStyle=orthogonalEdgeStyle;rounded=0;orthogonalLoop=1;jettySize=auto;html=1;endArrow=classic;endFill=1;noEdgeStyle=1;orthogonal=1;" edge="1" parent="sz4gvAt_zWbiklJf3Lrj-1" source="sz4gvAt_zWbiklJf3Lrj-9" target="sz4gvAt_zWbiklJf3Lrj-25">
                    &#xa;                    &#xa;                    &#xa;&#xa;&#xa;
                    <mxGeometry relative="1" as="geometry">
                        &#xa;                        &#xa;                        &#xa;&#xa;&#xa;
                        <mxPoint x="590" y="1020" as="targetPoint"/>
                        &#xa;                        &#xa;                        &#xa;&#xa;&#xa;
                        <Array as="points">
                            &#xa;                            &#xa;                            &#xa;&#xa;&#xa;
                            <mxPoint x="560" y="812"/>
                            &#xa;                            &#xa;                            &#xa;&#xa;&#xa;
                            <mxPoint x="465" y="888"/>
                            &#xa;                            &#xa;                            &#xa;&#xa;&#xa;
                        </Array>
                        &#xa;                        &#xa;                        &#xa;&#xa;&#xa;
                    </mxGeometry>
                    &#xa;                    &#xa;                    &#xa;&#xa;&#xa;
                </mxCell>
                &#xa;                &#xa;                &#xa;&#xa;&#xa;
                <mxCell id="sz4gvAt_zWbiklJf3Lrj-9" value="実処理" style="shape=process;whiteSpace=wrap;html=1;backgroundOutline=1;" vertex="1" parent="sz4gvAt_zWbiklJf3Lrj-1">
                    &#xa;                    &#xa;                    &#xa;&#xa;&#xa;
                    <mxGeometry x="500" y="740" width="120" height="60" as="geometry"/>
                    &#xa;                    &#xa;                    &#xa;&#xa;&#xa;
                </mxCell>
                &#xa;                &#xa;                &#xa;&#xa;&#xa;
                <mxCell id="sz4gvAt_zWbiklJf3Lrj-10" value="処理実行フラグ" style="shape=cylinder3;whiteSpace=wrap;html=1;boundedLbl=1;backgroundOutline=1;size=15;" vertex="1" parent="sz4gvAt_zWbiklJf3Lrj-1">
                    &#xa;                    &#xa;                    &#xa;&#xa;&#xa;
                    <mxGeometry x="980" width="200" height="80" as="geometry"/>
                    &#xa;                    &#xa;                    &#xa;&#xa;&#xa;
                </mxCell>
                &#xa;                &#xa;                &#xa;&#xa;&#xa;
                <mxCell id="sz4gvAt_zWbiklJf3Lrj-11" style="edgeStyle=orthogonalEdgeStyle;rounded=0;orthogonalLoop=1;jettySize=auto;html=1;endArrow=classic;endFill=1;noEdgeStyle=1;orthogonal=1;" edge="1" parent="sz4gvAt_zWbiklJf3Lrj-1" source="sz4gvAt_zWbiklJf3Lrj-15" target="sz4gvAt_zWbiklJf3Lrj-17">
                    &#xa;                    &#xa;                    &#xa;&#xa;&#xa;
                    <mxGeometry relative="1" as="geometry">
                        &#xa;                        &#xa;                        &#xa;&#xa;&#xa;
                        <Array as="points">
                            &#xa;                            &#xa;                            &#xa;&#xa;&#xa;
                            <mxPoint x="270" y="492"/>
                            &#xa;                            &#xa;                            &#xa;&#xa;&#xa;
                            <mxPoint x="318.75" y="568"/>
                            &#xa;                            &#xa;                            &#xa;&#xa;&#xa;
                        </Array>
                        &#xa;                        &#xa;                        &#xa;&#xa;&#xa;
                        <mxPoint x="318.75" y="580" as="targetPoint"/>
                        &#xa;                        &#xa;                        &#xa;&#xa;&#xa;
                    </mxGeometry>
                    &#xa;                    &#xa;                    &#xa;&#xa;&#xa;
                </mxCell>
                &#xa;                &#xa;                &#xa;&#xa;&#xa;
                <mxCell id="sz4gvAt_zWbiklJf3Lrj-12" value="Yes" style="edgeLabel;html=1;align=center;verticalAlign=middle;resizable=0;points=[];" vertex="1" connectable="0" parent="sz4gvAt_zWbiklJf3Lrj-11">
                    &#xa;                    &#xa;                    &#xa;&#xa;&#xa;
                    <mxGeometry x="-0.2455" y="2" relative="1" as="geometry">
                        &#xa;                        &#xa;                        &#xa;&#xa;&#xa;
                        <mxPoint x="-3.289999999999999" y="-19.810000000000002" as="offset"/>
                        &#xa;                        &#xa;                        &#xa;&#xa;&#xa;
                    </mxGeometry>
                    &#xa;                    &#xa;                    &#xa;&#xa;&#xa;
                </mxCell>
                &#xa;                &#xa;                &#xa;&#xa;&#xa;
                <mxCell id="sz4gvAt_zWbiklJf3Lrj-13" style="edgeStyle=orthogonalEdgeStyle;rounded=0;orthogonalLoop=1;jettySize=auto;html=1;endArrow=classic;endFill=1;noEdgeStyle=1;orthogonal=1;" edge="1" parent="sz4gvAt_zWbiklJf3Lrj-1" source="sz4gvAt_zWbiklJf3Lrj-15" target="sz4gvAt_zWbiklJf3Lrj-23">
                    &#xa;                    &#xa;                    &#xa;&#xa;&#xa;
                    <mxGeometry relative="1" as="geometry">
                        &#xa;                        &#xa;                        &#xa;&#xa;&#xa;
                        <mxPoint x="560" y="580" as="targetPoint"/>
                        &#xa;                        &#xa;                        &#xa;&#xa;&#xa;
                        <Array as="points">
                            &#xa;                            &#xa;                            &#xa;&#xa;&#xa;
                            <mxPoint x="360" y="492"/>
                            &#xa;                            &#xa;                            &#xa;&#xa;&#xa;
                            <mxPoint x="415" y="530"/>
                            &#xa;                            &#xa;                            &#xa;&#xa;&#xa;
                            <mxPoint x="415" y="690"/>
                            &#xa;                            &#xa;                            &#xa;&#xa;&#xa;
                            <mxPoint x="470" y="690"/>
                            &#xa;                            &#xa;                            &#xa;&#xa;&#xa;
                            <mxPoint x="470" y="850"/>
                            &#xa;                            &#xa;                            &#xa;&#xa;&#xa;
                            <mxPoint x="355" y="850"/>
                            &#xa;                            &#xa;                            &#xa;&#xa;&#xa;
                            <mxPoint x="355" y="1010"/>
                            &#xa;                            &#xa;                            &#xa;&#xa;&#xa;
                            <mxPoint x="396.25" y="1046"/>
                            &#xa;                            &#xa;                            &#xa;&#xa;&#xa;
                        </Array>
                        &#xa;                        &#xa;                        &#xa;&#xa;&#xa;
                    </mxGeometry>
                    &#xa;                    &#xa;                    &#xa;&#xa;&#xa;
                </mxCell>
                &#xa;                &#xa;                &#xa;&#xa;&#xa;
                <mxCell id="sz4gvAt_zWbiklJf3Lrj-14" value="No" style="edgeLabel;html=1;align=center;verticalAlign=middle;resizable=0;points=[];" vertex="1" connectable="0" parent="sz4gvAt_zWbiklJf3Lrj-13">
                    &#xa;                    &#xa;                    &#xa;&#xa;&#xa;
                    <mxGeometry x="-0.8666" y="-1" relative="1" as="geometry">
                        &#xa;                        &#xa;                        &#xa;&#xa;&#xa;
                        <mxPoint x="4.44" y="-3.1799999999999997" as="offset"/>
                        &#xa;                        &#xa;                        &#xa;&#xa;&#xa;
                    </mxGeometry>
                    &#xa;                    &#xa;                    &#xa;&#xa;&#xa;
                </mxCell>
                &#xa;                &#xa;                &#xa;&#xa;&#xa;
                <mxCell id="sz4gvAt_zWbiklJf3Lrj-15" value="処理実行フラグ=true" style="rhombus;whiteSpace=wrap;html=1;" vertex="1" parent="sz4gvAt_zWbiklJf3Lrj-1">
                    &#xa;                    &#xa;                    &#xa;&#xa;&#xa;
                    <mxGeometry x="220" y="290" width="190" height="190" as="geometry"/>
                    &#xa;                    &#xa;                    &#xa;&#xa;&#xa;
                </mxCell>
                &#xa;                &#xa;                &#xa;&#xa;&#xa;
                <mxCell id="sz4gvAt_zWbiklJf3Lrj-16" style="edgeStyle=orthogonalEdgeStyle;rounded=0;orthogonalLoop=1;jettySize=auto;html=1;endArrow=classic;endFill=1;noEdgeStyle=1;orthogonal=1;" edge="1" parent="sz4gvAt_zWbiklJf3Lrj-1" source="sz4gvAt_zWbiklJf3Lrj-17" target="sz4gvAt_zWbiklJf3Lrj-19">
                    &#xa;                    &#xa;                    &#xa;&#xa;&#xa;
                    <mxGeometry relative="1" as="geometry">
                        &#xa;                        &#xa;                        &#xa;&#xa;&#xa;
                        <Array as="points">
                            &#xa;                            &#xa;                            &#xa;&#xa;&#xa;
                            <mxPoint x="318.75" y="652"/>
                            &#xa;                            &#xa;                            &#xa;&#xa;&#xa;
                            <mxPoint x="322.5" y="728"/>
                            &#xa;                            &#xa;                            &#xa;&#xa;&#xa;
                        </Array>
                        &#xa;                        &#xa;                        &#xa;&#xa;&#xa;
                    </mxGeometry>
                    &#xa;                    &#xa;                    &#xa;&#xa;&#xa;
                </mxCell>
                &#xa;                &#xa;                &#xa;&#xa;&#xa;
                <mxCell id="sz4gvAt_zWbiklJf3Lrj-17" value="&lt;span&gt;ブックマークの整理&lt;/span&gt;" style="shape=process;whiteSpace=wrap;html=1;backgroundOutline=1;" vertex="1" parent="sz4gvAt_zWbiklJf3Lrj-1">
                    &#xa;                    &#xa;                    &#xa;&#xa;&#xa;
                    <mxGeometry x="258.75" y="580" width="120" height="60" as="geometry"/>
                    &#xa;                    &#xa;                    &#xa;&#xa;&#xa;
                </mxCell>
                &#xa;                &#xa;                &#xa;&#xa;&#xa;
                <mxCell id="sz4gvAt_zWbiklJf3Lrj-18" style="edgeStyle=orthogonalEdgeStyle;rounded=0;orthogonalLoop=1;jettySize=auto;html=1;endArrow=classic;endFill=1;noEdgeStyle=1;orthogonal=1;" edge="1" parent="sz4gvAt_zWbiklJf3Lrj-1" source="sz4gvAt_zWbiklJf3Lrj-19" target="sz4gvAt_zWbiklJf3Lrj-23">
                    &#xa;                    &#xa;                    &#xa;&#xa;&#xa;
                    <mxGeometry relative="1" as="geometry">
                        &#xa;                        &#xa;                        &#xa;&#xa;&#xa;
                        <Array as="points">
                            &#xa;                            &#xa;                            &#xa;&#xa;&#xa;
                            <mxPoint x="322.5" y="812"/>
                            &#xa;                            &#xa;                            &#xa;&#xa;&#xa;
                            <mxPoint x="325" y="850"/>
                            &#xa;                            &#xa;                            &#xa;&#xa;&#xa;
                            <mxPoint x="325" y="1010"/>
                            &#xa;                            &#xa;                            &#xa;&#xa;&#xa;
                            <mxPoint x="368.75" y="1048"/>
                            &#xa;                            &#xa;                            &#xa;&#xa;&#xa;
                        </Array>
                        &#xa;                        &#xa;                        &#xa;&#xa;&#xa;
                    </mxGeometry>
                    &#xa;                    &#xa;                    &#xa;&#xa;&#xa;
                </mxCell>
                &#xa;                &#xa;                &#xa;&#xa;&#xa;
                <mxCell id="sz4gvAt_zWbiklJf3Lrj-19" value="処理実行フラグ==false" style="rounded=0;whiteSpace=wrap;html=1;" vertex="1" parent="sz4gvAt_zWbiklJf3Lrj-1">
                    &#xa;                    &#xa;                    &#xa;&#xa;&#xa;
                    <mxGeometry x="217.5" y="740" width="210" height="60" as="geometry"/>
                    &#xa;                    &#xa;                    &#xa;&#xa;&#xa;
                </mxCell>
                &#xa;                &#xa;                &#xa;&#xa;&#xa;
                <mxCell id="sz4gvAt_zWbiklJf3Lrj-20" value="処理実行フラグ==true" style="rounded=0;whiteSpace=wrap;html=1;" vertex="1" parent="sz4gvAt_zWbiklJf3Lrj-1">
                    &#xa;                    &#xa;                    &#xa;&#xa;&#xa;
                    <mxGeometry x="440" y="355" width="210" height="60" as="geometry"/>
                    &#xa;                    &#xa;                    &#xa;&#xa;&#xa;
                </mxCell>
                &#xa;                &#xa;                &#xa;&#xa;&#xa;
                <mxCell id="sz4gvAt_zWbiklJf3Lrj-21" style="edgeStyle=orthogonalEdgeStyle;rounded=0;orthogonalLoop=1;jettySize=auto;html=1;endArrow=classic;endFill=1;noEdgeStyle=1;orthogonal=1;" edge="1" parent="sz4gvAt_zWbiklJf3Lrj-1" source="sz4gvAt_zWbiklJf3Lrj-7" target="sz4gvAt_zWbiklJf3Lrj-20">
                    &#xa;                    &#xa;                    &#xa;&#xa;&#xa;
                    <mxGeometry relative="1" as="geometry">
                        &#xa;                        &#xa;                        &#xa;&#xa;&#xa;
                        <mxPoint x="560" y="410" as="sourcePoint"/>
                        &#xa;                        &#xa;                        &#xa;&#xa;&#xa;
                        <mxPoint x="700" y="460" as="targetPoint"/>
                        &#xa;                        &#xa;                        &#xa;&#xa;&#xa;
                        <Array as="points">
                            &#xa;                            &#xa;                            &#xa;&#xa;&#xa;
                            <mxPoint x="545" y="204"/>
                            &#xa;                            &#xa;                            &#xa;&#xa;&#xa;
                            <mxPoint x="545" y="278"/>
                            &#xa;                            &#xa;                            &#xa;&#xa;&#xa;
                        </Array>
                        &#xa;                        &#xa;                        &#xa;&#xa;&#xa;
                    </mxGeometry>
                    &#xa;                    &#xa;                    &#xa;&#xa;&#xa;
                </mxCell>
                &#xa;                &#xa;                &#xa;&#xa;&#xa;
                <mxCell id="sz4gvAt_zWbiklJf3Lrj-22" value="Yes" style="edgeLabel;html=1;align=center;verticalAlign=middle;resizable=0;points=[];" vertex="1" connectable="0" parent="sz4gvAt_zWbiklJf3Lrj-21">
                    &#xa;                    &#xa;                    &#xa;&#xa;&#xa;
                    <mxGeometry x="-0.3882" y="3" relative="1" as="geometry">
                        &#xa;                        &#xa;                        &#xa;&#xa;&#xa;
                        <mxPoint x="-3" y="-0.8299999999999983" as="offset"/>
                        &#xa;                        &#xa;                        &#xa;&#xa;&#xa;
                    </mxGeometry>
                    &#xa;                    &#xa;                    &#xa;&#xa;&#xa;
                </mxCell>
                &#xa;                &#xa;                &#xa;&#xa;&#xa;
                <mxCell id="sz4gvAt_zWbiklJf3Lrj-23" value="&lt;span&gt;監視処理（常駐）&lt;/span&gt;" style="ellipse;whiteSpace=wrap;html=1;" vertex="1" parent="sz4gvAt_zWbiklJf3Lrj-1">
                    &#xa;                    &#xa;                    &#xa;&#xa;&#xa;
                    <mxGeometry x="350" y="1060" width="120" height="80" as="geometry"/>
                    &#xa;                    &#xa;                    &#xa;&#xa;&#xa;
                </mxCell>
                &#xa;                &#xa;                &#xa;&#xa;&#xa;
                <mxCell id="sz4gvAt_zWbiklJf3Lrj-24" style="edgeStyle=orthogonalEdgeStyle;rounded=0;orthogonalLoop=1;jettySize=auto;html=1;endArrow=classic;endFill=1;noEdgeStyle=1;orthogonal=1;" edge="1" parent="sz4gvAt_zWbiklJf3Lrj-1" source="sz4gvAt_zWbiklJf3Lrj-25" target="sz4gvAt_zWbiklJf3Lrj-23">
                    &#xa;                    &#xa;                    &#xa;&#xa;&#xa;
                    <mxGeometry relative="1" as="geometry">
                        &#xa;                        &#xa;                        &#xa;&#xa;&#xa;
                        <Array as="points">
                            &#xa;                            &#xa;                            &#xa;&#xa;&#xa;
                            <mxPoint x="465" y="972"/>
                            &#xa;                            &#xa;                            &#xa;&#xa;&#xa;
                            <mxPoint x="423.75" y="1046"/>
                            &#xa;                            &#xa;                            &#xa;&#xa;&#xa;
                        </Array>
                        &#xa;                        &#xa;                        &#xa;&#xa;&#xa;
                        <mxPoint x="465" y="1220" as="targetPoint"/>
                        &#xa;                        &#xa;                        &#xa;&#xa;&#xa;
                    </mxGeometry>
                    &#xa;                    &#xa;                    &#xa;&#xa;&#xa;
                </mxCell>
                &#xa;                &#xa;                &#xa;&#xa;&#xa;
                <mxCell id="sz4gvAt_zWbiklJf3Lrj-25" value="処理を実施した奴を削除" style="rounded=0;whiteSpace=wrap;html=1;" vertex="1" parent="sz4gvAt_zWbiklJf3Lrj-1">
                    &#xa;                    &#xa;                    &#xa;&#xa;&#xa;
                    <mxGeometry x="385" y="900" width="160" height="60" as="geometry"/>
                    &#xa;                    &#xa;                    &#xa;&#xa;&#xa;
                </mxCell>
                &#xa;                &#xa;                &#xa;&#xa;&#xa;
                <mxCell id="sz4gvAt_zWbiklJf3Lrj-26" style="edgeStyle=orthogonalEdgeStyle;rounded=0;orthogonalLoop=1;jettySize=auto;html=1;noEdgeStyle=1;orthogonal=1;" edge="1" parent="sz4gvAt_zWbiklJf3Lrj-1" source="sz4gvAt_zWbiklJf3Lrj-27" target="sz4gvAt_zWbiklJf3Lrj-9">
                    &#xa;                    &#xa;                    &#xa;&#xa;&#xa;
                    <mxGeometry relative="1" as="geometry">
                        &#xa;                        &#xa;                        &#xa;&#xa;&#xa;
                        <mxPoint x="525" y="800" as="sourcePoint"/>
                        &#xa;                        &#xa;                        &#xa;&#xa;&#xa;
                        <Array as="points">
                            &#xa;                            &#xa;                            &#xa;&#xa;&#xa;
                            <mxPoint x="525" y="652"/>
                            &#xa;                            &#xa;                            &#xa;&#xa;&#xa;
                            <mxPoint x="560" y="728"/>
                            &#xa;                            &#xa;                            &#xa;&#xa;&#xa;
                        </Array>
                        &#xa;                        &#xa;                        &#xa;&#xa;&#xa;
                    </mxGeometry>
                    &#xa;                    &#xa;                    &#xa;&#xa;&#xa;
                </mxCell>
                &#xa;                &#xa;                &#xa;&#xa;&#xa;
                <mxCell id="sz4gvAt_zWbiklJf3Lrj-27" value="処理の種類を分類" style="whiteSpace=wrap;html=1;" vertex="1" parent="sz4gvAt_zWbiklJf3Lrj-1">
                    &#xa;                    &#xa;                    &#xa;&#xa;&#xa;
                    <mxGeometry x="465" y="580" width="120" height="60" as="geometry"/>
                    &#xa;                    &#xa;                    &#xa;&#xa;&#xa;
                </mxCell>
                &#xa;                &#xa;                &#xa;&#xa;&#xa;
                <mxCell id="sz4gvAt_zWbiklJf3Lrj-28" value="Trigger" style="ellipse;whiteSpace=wrap;html=1;" vertex="1" parent="sz4gvAt_zWbiklJf3Lrj-1">
                    &#xa;                    &#xa;                    &#xa;&#xa;&#xa;
                    <mxGeometry x="20" width="120" height="80" as="geometry"/>
                    &#xa;                    &#xa;                    &#xa;&#xa;&#xa;
                </mxCell>
                &#xa;                &#xa;                &#xa;&#xa;&#xa;
                <mxCell id="sz4gvAt_zWbiklJf3Lrj-29" value="処理の種類をDBに追加" style="rounded=0;whiteSpace=wrap;html=1;" vertex="1" parent="sz4gvAt_zWbiklJf3Lrj-1">
                    &#xa;                    &#xa;                    &#xa;&#xa;&#xa;
                    <mxGeometry y="180" width="160" height="60" as="geometry"/>
                    &#xa;                    &#xa;                    &#xa;&#xa;&#xa;
                </mxCell>
                &#xa;                &#xa;                &#xa;&#xa;&#xa;
                <mxCell id="sz4gvAt_zWbiklJf3Lrj-30" style="edgeStyle=orthogonalEdgeStyle;rounded=0;orthogonalLoop=1;jettySize=auto;html=1;endArrow=classic;endFill=1;noEdgeStyle=1;orthogonal=1;" edge="1" parent="sz4gvAt_zWbiklJf3Lrj-1" source="sz4gvAt_zWbiklJf3Lrj-28" target="sz4gvAt_zWbiklJf3Lrj-29">
                    &#xa;                    &#xa;                    &#xa;&#xa;&#xa;
                    <mxGeometry x="-420" y="110" as="geometry">
                        &#xa;                        &#xa;                        &#xa;&#xa;&#xa;
                        <Array as="points">
                            &#xa;                            &#xa;                            &#xa;&#xa;&#xa;
                            <mxPoint x="80" y="92"/>
                            &#xa;                            &#xa;                            &#xa;&#xa;&#xa;
                            <mxPoint x="80" y="168"/>
                            &#xa;                            &#xa;                            &#xa;&#xa;&#xa;
                        </Array>
                        &#xa;                        &#xa;                        &#xa;&#xa;&#xa;
                        <mxPoint x="-315" y="310" as="targetPoint"/>
                        &#xa;                        &#xa;                        &#xa;&#xa;&#xa;
                    </mxGeometry>
                    &#xa;                    &#xa;                    &#xa;&#xa;&#xa;
                </mxCell>
                &#xa;                &#xa;                &#xa;&#xa;&#xa;
                <mxCell id="sz4gvAt_zWbiklJf3Lrj-31" value="&lt;span&gt;一時的なnode変数&lt;/span&gt;" style="shape=cylinder3;whiteSpace=wrap;html=1;boundedLbl=1;backgroundOutline=1;size=15;" vertex="1" parent="sz4gvAt_zWbiklJf3Lrj-1">
                    &#xa;                    &#xa;                    &#xa;&#xa;&#xa;
                    <mxGeometry x="1240" width="180" height="70" as="geometry"/>
                    &#xa;                    &#xa;                    &#xa;&#xa;&#xa;
                </mxCell>
                &#xa;                &#xa;                &#xa;&#xa;&#xa;
            </root>
            &#xa;            &#xa;            &#xa;&#xa;&#xa;
        </mxGraphModel>
        &#xa;        &#xa;        &#xa;&#xa;&#xa;
    </diagram>
    <diagram name="Flow Chart 0.2.0" id="Ds_H4xfdDPuSLCJe1bod">
        &#xa;        &#xa;        &#xa;&#xa;&#xa;
        <mxGraphModel dx="2228" dy="1580" grid="1" gridSize="10" guides="1" tooltips="1" connect="1" arrows="1" fold="1" page="0" pageScale="1" pageWidth="827" pageHeight="1169" math="0" shadow="0">
            &#xa;            &#xa;            &#xa;&#xa;&#xa;
            <root>
                &#xa;                &#xa;                &#xa;&#xa;&#xa;
                <mxCell id="0qINFHOwI4DMTrAWksQM-0"/>
                &#xa;                &#xa;                &#xa;&#xa;&#xa;
                <mxCell id="0qINFHOwI4DMTrAWksQM-1" parent="0qINFHOwI4DMTrAWksQM-0"/>
                &#xa;                &#xa;                &#xa;&#xa;&#xa;
                <mxCell id="0qINFHOwI4DMTrAWksQM-2" style="edgeStyle=orthogonalEdgeStyle;rounded=0;orthogonalLoop=1;jettySize=auto;html=1;endArrow=classic;endFill=1;noEdgeStyle=1;orthogonal=1;exitX=1;exitY=0;exitDx=0;exitDy=0;" parent="0qINFHOwI4DMTrAWksQM-1" source="0qINFHOwI4DMTrAWksQM-23" target="0qINFHOwI4DMTrAWksQM-7" edge="1">
                    &#xa;                    &#xa;                    &#xa;&#xa;&#xa;
                    <mxGeometry relative="1" as="geometry">
                        &#xa;                        &#xa;                        &#xa;&#xa;&#xa;
                        <mxPoint x="617.5" y="580" as="sourcePoint"/>
                        &#xa;                        &#xa;                        &#xa;&#xa;&#xa;
                        <Array as="points">
                            &#xa;                            &#xa;                            &#xa;&#xa;&#xa;
                            <mxPoint x="451.25" y="1048"/>
                            &#xa;                            &#xa;                            &#xa;&#xa;&#xa;
                            <mxPoint x="680" y="1010"/>
                            &#xa;                            &#xa;                            &#xa;&#xa;&#xa;
                            <mxPoint x="680" y="850"/>
                            &#xa;                            &#xa;                            &#xa;&#xa;&#xa;
                            <mxPoint x="680" y="850"/>
                            &#xa;                            &#xa;                            &#xa;&#xa;&#xa;
                            <mxPoint x="680" y="690"/>
                            &#xa;                            &#xa;                            &#xa;&#xa;&#xa;
                            <mxPoint x="680" y="690"/>
                            &#xa;                            &#xa;                            &#xa;&#xa;&#xa;
                            <mxPoint x="680" y="530"/>
                            &#xa;                            &#xa;                            &#xa;&#xa;&#xa;
                            <mxPoint x="680" y="530"/>
                            &#xa;                            &#xa;                            &#xa;&#xa;&#xa;
                            <mxPoint x="680" y="240"/>
                            &#xa;                            &#xa;                            &#xa;&#xa;&#xa;
                            <mxPoint x="605" y="202"/>
                            &#xa;                            &#xa;                            &#xa;&#xa;&#xa;
                        </Array>
                        &#xa;                        &#xa;                        &#xa;&#xa;&#xa;
                    </mxGeometry>
                    &#xa;                    &#xa;                    &#xa;&#xa;&#xa;
                </mxCell>
                &#xa;                &#xa;                &#xa;&#xa;&#xa;
                <mxCell id="0qINFHOwI4DMTrAWksQM-3" value="&lt;span&gt;処理の種類・数&lt;/span&gt;" style="shape=cylinder3;whiteSpace=wrap;html=1;boundedLbl=1;backgroundOutline=1;size=15;" parent="0qINFHOwI4DMTrAWksQM-1" vertex="1">
                    &#xa;                    &#xa;                    &#xa;&#xa;&#xa;
                    <mxGeometry x="740" width="180" height="80" as="geometry"/>
                    &#xa;                    &#xa;                    &#xa;&#xa;&#xa;
                </mxCell>
                &#xa;                &#xa;                &#xa;&#xa;&#xa;
                <mxCell id="0qINFHOwI4DMTrAWksQM-4" style="edgeStyle=orthogonalEdgeStyle;rounded=0;orthogonalLoop=1;jettySize=auto;html=1;endArrow=classic;endFill=1;noEdgeStyle=1;orthogonal=1;" parent="0qINFHOwI4DMTrAWksQM-1" source="0qINFHOwI4DMTrAWksQM-20" target="0qINFHOwI4DMTrAWksQM-34" edge="1">
                    &#xa;                    &#xa;                    &#xa;&#xa;&#xa;
                    <mxGeometry relative="1" as="geometry">
                        &#xa;                        &#xa;                        &#xa;&#xa;&#xa;
                        <Array as="points">
                            &#xa;                            &#xa;                            &#xa;&#xa;&#xa;
                            <mxPoint x="545" y="492"/>
                            &#xa;                            &#xa;                            &#xa;&#xa;&#xa;
                            <mxPoint x="525" y="568"/>
                            &#xa;                            &#xa;                            &#xa;&#xa;&#xa;
                        </Array>
                        &#xa;                        &#xa;                        &#xa;&#xa;&#xa;
                        <mxPoint x="525" y="580" as="targetPoint"/>
                        &#xa;                        &#xa;                        &#xa;&#xa;&#xa;
                    </mxGeometry>
                    &#xa;                    &#xa;                    &#xa;&#xa;&#xa;
                </mxCell>
                &#xa;                &#xa;                &#xa;&#xa;&#xa;
                <mxCell id="0qINFHOwI4DMTrAWksQM-5" style="edgeStyle=orthogonalEdgeStyle;rounded=0;orthogonalLoop=1;jettySize=auto;html=1;endArrow=classic;endFill=1;noEdgeStyle=1;orthogonal=1;" parent="0qINFHOwI4DMTrAWksQM-1" source="0qINFHOwI4DMTrAWksQM-7" target="0qINFHOwI4DMTrAWksQM-15" edge="1">
                    &#xa;                    &#xa;                    &#xa;&#xa;&#xa;
                    <mxGeometry relative="1" as="geometry">
                        &#xa;                        &#xa;                        &#xa;&#xa;&#xa;
                        <Array as="points">
                            &#xa;                            &#xa;                            &#xa;&#xa;&#xa;
                            <mxPoint x="485" y="202"/>
                            &#xa;                            &#xa;                            &#xa;&#xa;&#xa;
                            <mxPoint x="315" y="278"/>
                            &#xa;                            &#xa;                            &#xa;&#xa;&#xa;
                        </Array>
                        &#xa;                        &#xa;                        &#xa;&#xa;&#xa;
                    </mxGeometry>
                    &#xa;                    &#xa;                    &#xa;&#xa;&#xa;
                </mxCell>
                &#xa;                &#xa;                &#xa;&#xa;&#xa;
                <mxCell id="0qINFHOwI4DMTrAWksQM-6" value="No" style="edgeLabel;html=1;align=center;verticalAlign=middle;resizable=0;points=[];" parent="0qINFHOwI4DMTrAWksQM-5" vertex="1" connectable="0">
                    &#xa;                    &#xa;                    &#xa;&#xa;&#xa;
                    <mxGeometry x="-0.3204" relative="1" as="geometry">
                        &#xa;                        &#xa;                        &#xa;&#xa;&#xa;
                        <mxPoint as="offset"/>
                        &#xa;                        &#xa;                        &#xa;&#xa;&#xa;
                    </mxGeometry>
                    &#xa;                    &#xa;                    &#xa;&#xa;&#xa;
                </mxCell>
                &#xa;                &#xa;                &#xa;&#xa;&#xa;
                <mxCell id="0qINFHOwI4DMTrAWksQM-7" value="処理の数&amp;gt;0&lt;br&gt;&amp;amp;&lt;br&gt;処理実行フラグ=false" style="rhombus;whiteSpace=wrap;html=1;" parent="0qINFHOwI4DMTrAWksQM-1" vertex="1">
                    &#xa;                    &#xa;                    &#xa;&#xa;&#xa;
                    <mxGeometry x="450" width="190" height="190" as="geometry"/>
                    &#xa;                    &#xa;                    &#xa;&#xa;&#xa;
                </mxCell>
                &#xa;                &#xa;                &#xa;&#xa;&#xa;
                <mxCell id="0qINFHOwI4DMTrAWksQM-8" style="edgeStyle=orthogonalEdgeStyle;rounded=0;orthogonalLoop=1;jettySize=auto;html=1;endArrow=classic;endFill=1;noEdgeStyle=1;orthogonal=1;" parent="0qINFHOwI4DMTrAWksQM-1" source="0qINFHOwI4DMTrAWksQM-9" target="0qINFHOwI4DMTrAWksQM-25" edge="1">
                    &#xa;                    &#xa;                    &#xa;&#xa;&#xa;
                    <mxGeometry relative="1" as="geometry">
                        &#xa;                        &#xa;                        &#xa;&#xa;&#xa;
                        <mxPoint x="590" y="1020" as="targetPoint"/>
                        &#xa;                        &#xa;                        &#xa;&#xa;&#xa;
                        <Array as="points">
                            &#xa;                            &#xa;                            &#xa;&#xa;&#xa;
                            <mxPoint x="560" y="812"/>
                            &#xa;                            &#xa;                            &#xa;&#xa;&#xa;
                            <mxPoint x="465" y="888"/>
                            &#xa;                            &#xa;                            &#xa;&#xa;&#xa;
                        </Array>
                        &#xa;                        &#xa;                        &#xa;&#xa;&#xa;
                    </mxGeometry>
                    &#xa;                    &#xa;                    &#xa;&#xa;&#xa;
                </mxCell>
                &#xa;                &#xa;                &#xa;&#xa;&#xa;
                <mxCell id="0qINFHOwI4DMTrAWksQM-9" value="実処理" style="shape=process;whiteSpace=wrap;html=1;backgroundOutline=1;" parent="0qINFHOwI4DMTrAWksQM-1" vertex="1">
                    &#xa;                    &#xa;                    &#xa;&#xa;&#xa;
                    <mxGeometry x="500" y="740" width="120" height="60" as="geometry"/>
                    &#xa;                    &#xa;                    &#xa;&#xa;&#xa;
                </mxCell>
                &#xa;                &#xa;                &#xa;&#xa;&#xa;
                <mxCell id="0qINFHOwI4DMTrAWksQM-10" value="処理実行フラグ" style="shape=cylinder3;whiteSpace=wrap;html=1;boundedLbl=1;backgroundOutline=1;size=15;" parent="0qINFHOwI4DMTrAWksQM-1" vertex="1">
                    &#xa;                    &#xa;                    &#xa;&#xa;&#xa;
                    <mxGeometry x="980" width="200" height="80" as="geometry"/>
                    &#xa;                    &#xa;                    &#xa;&#xa;&#xa;
                </mxCell>
                &#xa;                &#xa;                &#xa;&#xa;&#xa;
                <mxCell id="0qINFHOwI4DMTrAWksQM-11" style="edgeStyle=orthogonalEdgeStyle;rounded=0;orthogonalLoop=1;jettySize=auto;html=1;endArrow=classic;endFill=1;noEdgeStyle=1;orthogonal=1;" parent="0qINFHOwI4DMTrAWksQM-1" source="0qINFHOwI4DMTrAWksQM-15" target="0qINFHOwI4DMTrAWksQM-17" edge="1">
                    &#xa;                    &#xa;                    &#xa;&#xa;&#xa;
                    <mxGeometry relative="1" as="geometry">
                        &#xa;                        &#xa;                        &#xa;&#xa;&#xa;
                        <Array as="points">
                            &#xa;                            &#xa;                            &#xa;&#xa;&#xa;
                            <mxPoint x="270" y="492"/>
                            &#xa;                            &#xa;                            &#xa;&#xa;&#xa;
                            <mxPoint x="318.75" y="568"/>
                            &#xa;                            &#xa;                            &#xa;&#xa;&#xa;
                        </Array>
                        &#xa;                        &#xa;                        &#xa;&#xa;&#xa;
                        <mxPoint x="318.75" y="580" as="targetPoint"/>
                        &#xa;                        &#xa;                        &#xa;&#xa;&#xa;
                    </mxGeometry>
                    &#xa;                    &#xa;                    &#xa;&#xa;&#xa;
                </mxCell>
                &#xa;                &#xa;                &#xa;&#xa;&#xa;
                <mxCell id="0qINFHOwI4DMTrAWksQM-12" value="Yes" style="edgeLabel;html=1;align=center;verticalAlign=middle;resizable=0;points=[];" parent="0qINFHOwI4DMTrAWksQM-11" vertex="1" connectable="0">
                    &#xa;                    &#xa;                    &#xa;&#xa;&#xa;
                    <mxGeometry x="-0.2455" y="2" relative="1" as="geometry">
                        &#xa;                        &#xa;                        &#xa;&#xa;&#xa;
                        <mxPoint x="-3.289999999999999" y="-19.810000000000002" as="offset"/>
                        &#xa;                        &#xa;                        &#xa;&#xa;&#xa;
                    </mxGeometry>
                    &#xa;                    &#xa;                    &#xa;&#xa;&#xa;
                </mxCell>
                &#xa;                &#xa;                &#xa;&#xa;&#xa;
                <mxCell id="0qINFHOwI4DMTrAWksQM-13" style="edgeStyle=orthogonalEdgeStyle;rounded=0;orthogonalLoop=1;jettySize=auto;html=1;endArrow=classic;endFill=1;noEdgeStyle=1;orthogonal=1;" parent="0qINFHOwI4DMTrAWksQM-1" source="0qINFHOwI4DMTrAWksQM-15" target="0qINFHOwI4DMTrAWksQM-23" edge="1">
                    &#xa;                    &#xa;                    &#xa;&#xa;&#xa;
                    <mxGeometry relative="1" as="geometry">
                        &#xa;                        &#xa;                        &#xa;&#xa;&#xa;
                        <mxPoint x="560" y="580" as="targetPoint"/>
                        &#xa;                        &#xa;                        &#xa;&#xa;&#xa;
                        <Array as="points">
                            &#xa;                            &#xa;                            &#xa;&#xa;&#xa;
                            <mxPoint x="360" y="492"/>
                            &#xa;                            &#xa;                            &#xa;&#xa;&#xa;
                            <mxPoint x="415" y="530"/>
                            &#xa;                            &#xa;                            &#xa;&#xa;&#xa;
                            <mxPoint x="415" y="690"/>
                            &#xa;                            &#xa;                            &#xa;&#xa;&#xa;
                            <mxPoint x="470" y="690"/>
                            &#xa;                            &#xa;                            &#xa;&#xa;&#xa;
                            <mxPoint x="470" y="850"/>
                            &#xa;                            &#xa;                            &#xa;&#xa;&#xa;
                            <mxPoint x="355" y="850"/>
                            &#xa;                            &#xa;                            &#xa;&#xa;&#xa;
                            <mxPoint x="355" y="1010"/>
                            &#xa;                            &#xa;                            &#xa;&#xa;&#xa;
                            <mxPoint x="396.25" y="1046"/>
                            &#xa;                            &#xa;                            &#xa;&#xa;&#xa;
                        </Array>
                        &#xa;                        &#xa;                        &#xa;&#xa;&#xa;
                    </mxGeometry>
                    &#xa;                    &#xa;                    &#xa;&#xa;&#xa;
                </mxCell>
                &#xa;                &#xa;                &#xa;&#xa;&#xa;
                <mxCell id="0qINFHOwI4DMTrAWksQM-14" value="No" style="edgeLabel;html=1;align=center;verticalAlign=middle;resizable=0;points=[];" parent="0qINFHOwI4DMTrAWksQM-13" vertex="1" connectable="0">
                    &#xa;                    &#xa;                    &#xa;&#xa;&#xa;
                    <mxGeometry x="-0.8666" y="-1" relative="1" as="geometry">
                        &#xa;                        &#xa;                        &#xa;&#xa;&#xa;
                        <mxPoint x="4.44" y="-3.1799999999999997" as="offset"/>
                        &#xa;                        &#xa;                        &#xa;&#xa;&#xa;
                    </mxGeometry>
                    &#xa;                    &#xa;                    &#xa;&#xa;&#xa;
                </mxCell>
                &#xa;                &#xa;                &#xa;&#xa;&#xa;
                <mxCell id="0qINFHOwI4DMTrAWksQM-15" value="処理実行フラグ=true" style="rhombus;whiteSpace=wrap;html=1;" parent="0qINFHOwI4DMTrAWksQM-1" vertex="1">
                    &#xa;                    &#xa;                    &#xa;&#xa;&#xa;
                    <mxGeometry x="220" y="290" width="190" height="190" as="geometry"/>
                    &#xa;                    &#xa;                    &#xa;&#xa;&#xa;
                </mxCell>
                &#xa;                &#xa;                &#xa;&#xa;&#xa;
                <mxCell id="0qINFHOwI4DMTrAWksQM-16" style="edgeStyle=orthogonalEdgeStyle;rounded=0;orthogonalLoop=1;jettySize=auto;html=1;endArrow=classic;endFill=1;noEdgeStyle=1;orthogonal=1;" parent="0qINFHOwI4DMTrAWksQM-1" source="0qINFHOwI4DMTrAWksQM-17" target="0qINFHOwI4DMTrAWksQM-19" edge="1">
                    &#xa;                    &#xa;                    &#xa;&#xa;&#xa;
                    <mxGeometry relative="1" as="geometry">
                        &#xa;                        &#xa;                        &#xa;&#xa;&#xa;
                        <Array as="points">
                            &#xa;                            &#xa;                            &#xa;&#xa;&#xa;
                            <mxPoint x="318.75" y="652"/>
                            &#xa;                            &#xa;                            &#xa;&#xa;&#xa;
                            <mxPoint x="322.5" y="728"/>
                            &#xa;                            &#xa;                            &#xa;&#xa;&#xa;
                        </Array>
                        &#xa;                        &#xa;                        &#xa;&#xa;&#xa;
                    </mxGeometry>
                    &#xa;                    &#xa;                    &#xa;&#xa;&#xa;
                </mxCell>
                &#xa;                &#xa;                &#xa;&#xa;&#xa;
                <mxCell id="0qINFHOwI4DMTrAWksQM-17" value="&lt;span&gt;ブックマークの整理&lt;/span&gt;" style="shape=process;whiteSpace=wrap;html=1;backgroundOutline=1;" parent="0qINFHOwI4DMTrAWksQM-1" vertex="1">
                    &#xa;                    &#xa;                    &#xa;&#xa;&#xa;
                    <mxGeometry x="258.75" y="580" width="120" height="60" as="geometry"/>
                    &#xa;                    &#xa;                    &#xa;&#xa;&#xa;
                </mxCell>
                &#xa;                &#xa;                &#xa;&#xa;&#xa;
                <mxCell id="0qINFHOwI4DMTrAWksQM-18" style="edgeStyle=orthogonalEdgeStyle;rounded=0;orthogonalLoop=1;jettySize=auto;html=1;endArrow=classic;endFill=1;noEdgeStyle=1;orthogonal=1;" parent="0qINFHOwI4DMTrAWksQM-1" source="0qINFHOwI4DMTrAWksQM-19" target="0qINFHOwI4DMTrAWksQM-23" edge="1">
                    &#xa;                    &#xa;                    &#xa;&#xa;&#xa;
                    <mxGeometry relative="1" as="geometry">
                        &#xa;                        &#xa;                        &#xa;&#xa;&#xa;
                        <Array as="points">
                            &#xa;                            &#xa;                            &#xa;&#xa;&#xa;
                            <mxPoint x="322.5" y="812"/>
                            &#xa;                            &#xa;                            &#xa;&#xa;&#xa;
                            <mxPoint x="325" y="850"/>
                            &#xa;                            &#xa;                            &#xa;&#xa;&#xa;
                            <mxPoint x="325" y="1010"/>
                            &#xa;                            &#xa;                            &#xa;&#xa;&#xa;
                            <mxPoint x="368.75" y="1048"/>
                            &#xa;                            &#xa;                            &#xa;&#xa;&#xa;
                        </Array>
                        &#xa;                        &#xa;                        &#xa;&#xa;&#xa;
                    </mxGeometry>
                    &#xa;                    &#xa;                    &#xa;&#xa;&#xa;
                </mxCell>
                &#xa;                &#xa;                &#xa;&#xa;&#xa;
                <mxCell id="0qINFHOwI4DMTrAWksQM-19" value="処理実行フラグ==false" style="rounded=0;whiteSpace=wrap;html=1;" parent="0qINFHOwI4DMTrAWksQM-1" vertex="1">
                    &#xa;                    &#xa;                    &#xa;&#xa;&#xa;
                    <mxGeometry x="217.5" y="740" width="210" height="60" as="geometry"/>
                    &#xa;                    &#xa;                    &#xa;&#xa;&#xa;
                </mxCell>
                &#xa;                &#xa;                &#xa;&#xa;&#xa;
                <mxCell id="0qINFHOwI4DMTrAWksQM-20" value="処理実行フラグ==true" style="rounded=0;whiteSpace=wrap;html=1;" parent="0qINFHOwI4DMTrAWksQM-1" vertex="1">
                    &#xa;                    &#xa;                    &#xa;&#xa;&#xa;
                    <mxGeometry x="440" y="355" width="210" height="60" as="geometry"/>
                    &#xa;                    &#xa;                    &#xa;&#xa;&#xa;
                </mxCell>
                &#xa;                &#xa;                &#xa;&#xa;&#xa;
                <mxCell id="0qINFHOwI4DMTrAWksQM-21" style="edgeStyle=orthogonalEdgeStyle;rounded=0;orthogonalLoop=1;jettySize=auto;html=1;endArrow=classic;endFill=1;noEdgeStyle=1;orthogonal=1;" parent="0qINFHOwI4DMTrAWksQM-1" source="0qINFHOwI4DMTrAWksQM-7" target="0qINFHOwI4DMTrAWksQM-20" edge="1">
                    &#xa;                    &#xa;                    &#xa;&#xa;&#xa;
                    <mxGeometry relative="1" as="geometry">
                        &#xa;                        &#xa;                        &#xa;&#xa;&#xa;
                        <mxPoint x="560" y="410" as="sourcePoint"/>
                        &#xa;                        &#xa;                        &#xa;&#xa;&#xa;
                        <mxPoint x="700" y="460" as="targetPoint"/>
                        &#xa;                        &#xa;                        &#xa;&#xa;&#xa;
                        <Array as="points">
                            &#xa;                            &#xa;                            &#xa;&#xa;&#xa;
                            <mxPoint x="545" y="204"/>
                            &#xa;                            &#xa;                            &#xa;&#xa;&#xa;
                            <mxPoint x="545" y="278"/>
                            &#xa;                            &#xa;                            &#xa;&#xa;&#xa;
                        </Array>
                        &#xa;                        &#xa;                        &#xa;&#xa;&#xa;
                    </mxGeometry>
                    &#xa;                    &#xa;                    &#xa;&#xa;&#xa;
                </mxCell>
                &#xa;                &#xa;                &#xa;&#xa;&#xa;
                <mxCell id="0qINFHOwI4DMTrAWksQM-22" value="Yes" style="edgeLabel;html=1;align=center;verticalAlign=middle;resizable=0;points=[];" parent="0qINFHOwI4DMTrAWksQM-21" vertex="1" connectable="0">
                    &#xa;                    &#xa;                    &#xa;&#xa;&#xa;
                    <mxGeometry x="-0.3882" y="3" relative="1" as="geometry">
                        &#xa;                        &#xa;                        &#xa;&#xa;&#xa;
                        <mxPoint x="-3" y="-0.8299999999999983" as="offset"/>
                        &#xa;                        &#xa;                        &#xa;&#xa;&#xa;
                    </mxGeometry>
                    &#xa;                    &#xa;                    &#xa;&#xa;&#xa;
                </mxCell>
                &#xa;                &#xa;                &#xa;&#xa;&#xa;
                <mxCell id="0qINFHOwI4DMTrAWksQM-23" value="&lt;span&gt;監視処理（常駐）&lt;/span&gt;" style="ellipse;whiteSpace=wrap;html=1;" parent="0qINFHOwI4DMTrAWksQM-1" vertex="1">
                    &#xa;                    &#xa;                    &#xa;&#xa;&#xa;
                    <mxGeometry x="350" y="1060" width="120" height="80" as="geometry"/>
                    &#xa;                    &#xa;                    &#xa;&#xa;&#xa;
                </mxCell>
                &#xa;                &#xa;                &#xa;&#xa;&#xa;
                <mxCell id="0qINFHOwI4DMTrAWksQM-24" style="edgeStyle=orthogonalEdgeStyle;rounded=0;orthogonalLoop=1;jettySize=auto;html=1;endArrow=classic;endFill=1;noEdgeStyle=1;orthogonal=1;" parent="0qINFHOwI4DMTrAWksQM-1" source="0qINFHOwI4DMTrAWksQM-25" target="0qINFHOwI4DMTrAWksQM-23" edge="1">
                    &#xa;                    &#xa;                    &#xa;&#xa;&#xa;
                    <mxGeometry relative="1" as="geometry">
                        &#xa;                        &#xa;                        &#xa;&#xa;&#xa;
                        <Array as="points">
                            &#xa;                            &#xa;                            &#xa;&#xa;&#xa;
                            <mxPoint x="465" y="972"/>
                            &#xa;                            &#xa;                            &#xa;&#xa;&#xa;
                            <mxPoint x="423.75" y="1046"/>
                            &#xa;                            &#xa;                            &#xa;&#xa;&#xa;
                        </Array>
                        &#xa;                        &#xa;                        &#xa;&#xa;&#xa;
                        <mxPoint x="465" y="1220" as="targetPoint"/>
                        &#xa;                        &#xa;                        &#xa;&#xa;&#xa;
                    </mxGeometry>
                    &#xa;                    &#xa;                    &#xa;&#xa;&#xa;
                </mxCell>
                &#xa;                &#xa;                &#xa;&#xa;&#xa;
                <mxCell id="0qINFHOwI4DMTrAWksQM-25" value="処理を実施した奴を削除" style="rounded=0;whiteSpace=wrap;html=1;" parent="0qINFHOwI4DMTrAWksQM-1" vertex="1">
                    &#xa;                    &#xa;                    &#xa;&#xa;&#xa;
                    <mxGeometry x="385" y="900" width="160" height="60" as="geometry"/>
                    &#xa;                    &#xa;                    &#xa;&#xa;&#xa;
                </mxCell>
                &#xa;                &#xa;                &#xa;&#xa;&#xa;
                <mxCell id="0qINFHOwI4DMTrAWksQM-27" style="edgeStyle=orthogonalEdgeStyle;rounded=0;orthogonalLoop=1;jettySize=auto;html=1;noEdgeStyle=1;orthogonal=1;" parent="0qINFHOwI4DMTrAWksQM-1" source="0qINFHOwI4DMTrAWksQM-34" target="0qINFHOwI4DMTrAWksQM-9" edge="1">
                    &#xa;                    &#xa;                    &#xa;&#xa;&#xa;
                    <mxGeometry relative="1" as="geometry">
                        &#xa;                        &#xa;                        &#xa;&#xa;&#xa;
                        <mxPoint x="525" y="800" as="sourcePoint"/>
                        &#xa;                        &#xa;                        &#xa;&#xa;&#xa;
                        <Array as="points">
                            &#xa;                            &#xa;                            &#xa;&#xa;&#xa;
                            <mxPoint x="525" y="652"/>
                            &#xa;                            &#xa;                            &#xa;&#xa;&#xa;
                            <mxPoint x="560" y="728"/>
                            &#xa;                            &#xa;                            &#xa;&#xa;&#xa;
                        </Array>
                        &#xa;                        &#xa;                        &#xa;&#xa;&#xa;
                    </mxGeometry>
                    &#xa;                    &#xa;                    &#xa;&#xa;&#xa;
                </mxCell>
                &#xa;                &#xa;                &#xa;&#xa;&#xa;
                <mxCell id="0qINFHOwI4DMTrAWksQM-34" value="処理の種類を分類" style="whiteSpace=wrap;html=1;" parent="0qINFHOwI4DMTrAWksQM-1" vertex="1">
                    &#xa;                    &#xa;                    &#xa;&#xa;&#xa;
                    <mxGeometry x="465" y="580" width="120" height="60" as="geometry"/>
                    &#xa;                    &#xa;                    &#xa;&#xa;&#xa;
                </mxCell>
                &#xa;                &#xa;                &#xa;&#xa;&#xa;
                <mxCell id="0qINFHOwI4DMTrAWksQM-35" value="Trigger" style="ellipse;whiteSpace=wrap;html=1;" parent="0qINFHOwI4DMTrAWksQM-1" vertex="1">
                    &#xa;                    &#xa;                    &#xa;&#xa;&#xa;
                    <mxGeometry x="20" width="120" height="80" as="geometry"/>
                    &#xa;                    &#xa;                    &#xa;&#xa;&#xa;
                </mxCell>
                &#xa;                &#xa;                &#xa;&#xa;&#xa;
                <mxCell id="0qINFHOwI4DMTrAWksQM-36" value="処理の種類をDBに追加" style="rounded=0;whiteSpace=wrap;html=1;" parent="0qINFHOwI4DMTrAWksQM-1" vertex="1">
                    &#xa;                    &#xa;                    &#xa;&#xa;&#xa;
                    <mxGeometry y="180" width="160" height="60" as="geometry"/>
                    &#xa;                    &#xa;                    &#xa;&#xa;&#xa;
                </mxCell>
                &#xa;                &#xa;                &#xa;&#xa;&#xa;
                <mxCell id="0qINFHOwI4DMTrAWksQM-37" style="edgeStyle=orthogonalEdgeStyle;rounded=0;orthogonalLoop=1;jettySize=auto;html=1;endArrow=classic;endFill=1;noEdgeStyle=1;orthogonal=1;" parent="0qINFHOwI4DMTrAWksQM-1" source="0qINFHOwI4DMTrAWksQM-35" target="0qINFHOwI4DMTrAWksQM-36" edge="1">
                    &#xa;                    &#xa;                    &#xa;&#xa;&#xa;
                    <mxGeometry x="-420" y="110" as="geometry">
                        &#xa;                        &#xa;                        &#xa;&#xa;&#xa;
                        <Array as="points">
                            &#xa;                            &#xa;                            &#xa;&#xa;&#xa;
                            <mxPoint x="80" y="92"/>
                            &#xa;                            &#xa;                            &#xa;&#xa;&#xa;
                            <mxPoint x="80" y="168"/>
                            &#xa;                            &#xa;                            &#xa;&#xa;&#xa;
                        </Array>
                        &#xa;                        &#xa;                        &#xa;&#xa;&#xa;
                        <mxPoint x="-315" y="310" as="targetPoint"/>
                        &#xa;                        &#xa;                        &#xa;&#xa;&#xa;
                    </mxGeometry>
                    &#xa;                    &#xa;                    &#xa;&#xa;&#xa;
                </mxCell>
                &#xa;                &#xa;                &#xa;&#xa;&#xa;
                <mxCell id="0qINFHOwI4DMTrAWksQM-38" value="&lt;span&gt;一時的なnode変数&lt;/span&gt;" style="shape=cylinder3;whiteSpace=wrap;html=1;boundedLbl=1;backgroundOutline=1;size=15;" parent="0qINFHOwI4DMTrAWksQM-1" vertex="1">
                    &#xa;                    &#xa;                    &#xa;&#xa;&#xa;
                    <mxGeometry x="1240" width="180" height="70" as="geometry"/>
                    &#xa;                    &#xa;                    &#xa;&#xa;&#xa;
                </mxCell>
                &#xa;                &#xa;                &#xa;&#xa;&#xa;
            </root>
            &#xa;            &#xa;            &#xa;&#xa;&#xa;
        </mxGraphModel>
        &#xa;        &#xa;        &#xa;&#xa;&#xa;
    </diagram>
    <diagram id="xs9DS5Jr_xVxbvXBeX1b" name="Flow Chart 0.1.1">
        &#xa;        &#xa;        &#xa;        &#xa;&#xa;&#xa;&#xa;
        <mxGraphModel dx="1422" dy="762" grid="1" gridSize="10" guides="1" tooltips="1" connect="1" arrows="1" fold="1" page="0" pageScale="1" pageWidth="827" pageHeight="1169" math="0" shadow="0">
            &#xa;            &#xa;            &#xa;            &#xa;&#xa;&#xa;&#xa;
            <root>
                &#xa;                &#xa;                &#xa;                &#xa;&#xa;&#xa;&#xa;
                <mxCell id="KE524f0EOoXrqlKiMIF--0"/>
                &#xa;                &#xa;                &#xa;                &#xa;&#xa;&#xa;&#xa;
                <mxCell id="KE524f0EOoXrqlKiMIF--1" parent="KE524f0EOoXrqlKiMIF--0"/>
                &#xa;                &#xa;                &#xa;                &#xa;&#xa;&#xa;&#xa;
                <mxCell id="LD_NdJFulE2Uzulx7fiv-29" style="edgeStyle=orthogonalEdgeStyle;rounded=0;orthogonalLoop=1;jettySize=auto;html=1;endArrow=classic;endFill=1;noEdgeStyle=1;orthogonal=1;exitX=1;exitY=0;exitDx=0;exitDy=0;" parent="KE524f0EOoXrqlKiMIF--1" source="LD_NdJFulE2Uzulx7fiv-48" target="LD_NdJFulE2Uzulx7fiv-24" edge="1">
                    &#xa;                    &#xa;                    &#xa;                    &#xa;&#xa;&#xa;&#xa;
                    <mxGeometry relative="1" as="geometry">
                        &#xa;                        &#xa;                        &#xa;                        &#xa;&#xa;&#xa;&#xa;
                        <mxPoint x="617.5" y="580" as="sourcePoint"/>
                        &#xa;                        &#xa;                        &#xa;                        &#xa;&#xa;&#xa;&#xa;
                        <Array as="points">
                            &#xa;                            &#xa;                            &#xa;                            &#xa;&#xa;&#xa;&#xa;
                            <mxPoint x="461.25" y="1368"/>
                            &#xa;                            &#xa;                            &#xa;                            &#xa;&#xa;&#xa;&#xa;
                            <mxPoint x="680" y="1330"/>
                            &#xa;                            &#xa;                            &#xa;                            &#xa;&#xa;&#xa;&#xa;
                            <mxPoint x="680" y="1170"/>
                            &#xa;                            &#xa;                            &#xa;                            &#xa;&#xa;&#xa;&#xa;
                            <mxPoint x="680" y="1170"/>
                            &#xa;                            &#xa;                            &#xa;                            &#xa;&#xa;&#xa;&#xa;
                            <mxPoint x="680" y="1010"/>
                            &#xa;                            &#xa;                            &#xa;                            &#xa;&#xa;&#xa;&#xa;
                            <mxPoint x="680" y="1010"/>
                            &#xa;                            &#xa;                            &#xa;                            &#xa;&#xa;&#xa;&#xa;
                            <mxPoint x="680" y="850"/>
                            &#xa;                            &#xa;                            &#xa;                            &#xa;&#xa;&#xa;&#xa;
                            <mxPoint x="680" y="850"/>
                            &#xa;                            &#xa;                            &#xa;                            &#xa;&#xa;&#xa;&#xa;
                            <mxPoint x="680" y="690"/>
                            &#xa;                            &#xa;                            &#xa;                            &#xa;&#xa;&#xa;&#xa;
                            <mxPoint x="680" y="690"/>
                            &#xa;                            &#xa;                            &#xa;                            &#xa;&#xa;&#xa;&#xa;
                            <mxPoint x="680" y="530"/>
                            &#xa;                            &#xa;                            &#xa;                            &#xa;&#xa;&#xa;&#xa;
                            <mxPoint x="680" y="530"/>
                            &#xa;                            &#xa;                            &#xa;                            &#xa;&#xa;&#xa;&#xa;
                            <mxPoint x="680" y="240"/>
                            &#xa;                            &#xa;                            &#xa;                            &#xa;&#xa;&#xa;&#xa;
                            <mxPoint x="605" y="202"/>
                            &#xa;                            &#xa;                            &#xa;                            &#xa;&#xa;&#xa;&#xa;
                        </Array>
                        &#xa;                        &#xa;                        &#xa;                        &#xa;&#xa;&#xa;&#xa;
                    </mxGeometry>
                    &#xa;                    &#xa;                    &#xa;                    &#xa;&#xa;&#xa;&#xa;
                </mxCell>
                &#xa;                &#xa;                &#xa;                &#xa;&#xa;&#xa;&#xa;
                <mxCell id="LD_NdJFulE2Uzulx7fiv-23" value="&lt;span&gt;処理の種類・数&lt;/span&gt;" style="shape=cylinder3;whiteSpace=wrap;html=1;boundedLbl=1;backgroundOutline=1;size=15;" parent="KE524f0EOoXrqlKiMIF--1" vertex="1">
                    &#xa;                    &#xa;                    &#xa;                    &#xa;&#xa;&#xa;&#xa;
                    <mxGeometry x="740" width="180" height="80" as="geometry"/>
                    &#xa;                    &#xa;                    &#xa;                    &#xa;&#xa;&#xa;&#xa;
                </mxCell>
                &#xa;                &#xa;                &#xa;                &#xa;&#xa;&#xa;&#xa;
                <mxCell id="LD_NdJFulE2Uzulx7fiv-27" style="edgeStyle=orthogonalEdgeStyle;rounded=0;orthogonalLoop=1;jettySize=auto;html=1;endArrow=classic;endFill=1;noEdgeStyle=1;orthogonal=1;" parent="KE524f0EOoXrqlKiMIF--1" source="LD_NdJFulE2Uzulx7fiv-42" target="NwabN-8boyN1eVNhUNNU-6" edge="1">
                    &#xa;                    &#xa;                    &#xa;                    &#xa;&#xa;&#xa;&#xa;
                    <mxGeometry relative="1" as="geometry">
                        &#xa;                        &#xa;                        &#xa;                        &#xa;&#xa;&#xa;&#xa;
                        <Array as="points">
                            &#xa;                            &#xa;                            &#xa;                            &#xa;&#xa;&#xa;&#xa;
                            <mxPoint x="545" y="492"/>
                            &#xa;                            &#xa;                            &#xa;                            &#xa;&#xa;&#xa;&#xa;
                            <mxPoint x="525" y="568"/>
                            &#xa;                            &#xa;                            &#xa;                            &#xa;&#xa;&#xa;&#xa;
                        </Array>
                        &#xa;                        &#xa;                        &#xa;                        &#xa;&#xa;&#xa;&#xa;
                    </mxGeometry>
                    &#xa;                    &#xa;                    &#xa;                    &#xa;&#xa;&#xa;&#xa;
                </mxCell>
                &#xa;                &#xa;                &#xa;                &#xa;&#xa;&#xa;&#xa;
                <mxCell id="LD_NdJFulE2Uzulx7fiv-30" style="edgeStyle=orthogonalEdgeStyle;rounded=0;orthogonalLoop=1;jettySize=auto;html=1;endArrow=classic;endFill=1;noEdgeStyle=1;orthogonal=1;" parent="KE524f0EOoXrqlKiMIF--1" source="LD_NdJFulE2Uzulx7fiv-24" target="LD_NdJFulE2Uzulx7fiv-32" edge="1">
                    &#xa;                    &#xa;                    &#xa;                    &#xa;&#xa;&#xa;&#xa;
                    <mxGeometry relative="1" as="geometry">
                        &#xa;                        &#xa;                        &#xa;                        &#xa;&#xa;&#xa;&#xa;
                        <Array as="points">
                            &#xa;                            &#xa;                            &#xa;                            &#xa;&#xa;&#xa;&#xa;
                            <mxPoint x="485" y="202"/>
                            &#xa;                            &#xa;                            &#xa;                            &#xa;&#xa;&#xa;&#xa;
                            <mxPoint x="315" y="278"/>
                            &#xa;                            &#xa;                            &#xa;                            &#xa;&#xa;&#xa;&#xa;
                        </Array>
                        &#xa;                        &#xa;                        &#xa;                        &#xa;&#xa;&#xa;&#xa;
                    </mxGeometry>
                    &#xa;                    &#xa;                    &#xa;                    &#xa;&#xa;&#xa;&#xa;
                </mxCell>
                &#xa;                &#xa;                &#xa;                &#xa;&#xa;&#xa;&#xa;
                <mxCell id="LD_NdJFulE2Uzulx7fiv-31" value="No" style="edgeLabel;html=1;align=center;verticalAlign=middle;resizable=0;points=[];" parent="LD_NdJFulE2Uzulx7fiv-30" vertex="1" connectable="0">
                    &#xa;                    &#xa;                    &#xa;                    &#xa;&#xa;&#xa;&#xa;
                    <mxGeometry x="-0.3204" relative="1" as="geometry">
                        &#xa;                        &#xa;                        &#xa;                        &#xa;&#xa;&#xa;&#xa;
                        <mxPoint as="offset"/>
                        &#xa;                        &#xa;                        &#xa;                        &#xa;&#xa;&#xa;&#xa;
                    </mxGeometry>
                    &#xa;                    &#xa;                    &#xa;                    &#xa;&#xa;&#xa;&#xa;
                </mxCell>
                &#xa;                &#xa;                &#xa;                &#xa;&#xa;&#xa;&#xa;
                <mxCell id="LD_NdJFulE2Uzulx7fiv-24" value="処理の数&amp;gt;0&lt;br&gt;&amp;amp;&lt;br&gt;処理実行フラグ=false" style="rhombus;whiteSpace=wrap;html=1;" parent="KE524f0EOoXrqlKiMIF--1" vertex="1">
                    &#xa;                    &#xa;                    &#xa;                    &#xa;&#xa;&#xa;&#xa;
                    <mxGeometry x="450" width="190" height="190" as="geometry"/>
                    &#xa;                    &#xa;                    &#xa;                    &#xa;&#xa;&#xa;&#xa;
                </mxCell>
                &#xa;                &#xa;                &#xa;                &#xa;&#xa;&#xa;&#xa;
                <mxCell id="LD_NdJFulE2Uzulx7fiv-50" style="edgeStyle=orthogonalEdgeStyle;rounded=0;orthogonalLoop=1;jettySize=auto;html=1;endArrow=classic;endFill=1;noEdgeStyle=1;orthogonal=1;" parent="KE524f0EOoXrqlKiMIF--1" source="LD_NdJFulE2Uzulx7fiv-25" target="LD_NdJFulE2Uzulx7fiv-56" edge="1">
                    &#xa;                    &#xa;                    &#xa;                    &#xa;&#xa;&#xa;&#xa;
                    <mxGeometry relative="1" as="geometry">
                        &#xa;                        &#xa;                        &#xa;                        &#xa;&#xa;&#xa;&#xa;
                        <mxPoint x="590" y="1020" as="targetPoint"/>
                        &#xa;                        &#xa;                        &#xa;                        &#xa;&#xa;&#xa;&#xa;
                        <Array as="points">
                            &#xa;                            &#xa;                            &#xa;                            &#xa;&#xa;&#xa;&#xa;
                            <mxPoint x="560" y="972"/>
                            &#xa;                            &#xa;                            &#xa;                            &#xa;&#xa;&#xa;&#xa;
                            <mxPoint x="497.5" y="1048"/>
                            &#xa;                            &#xa;                            &#xa;                            &#xa;&#xa;&#xa;&#xa;
                        </Array>
                        &#xa;                        &#xa;                        &#xa;                        &#xa;&#xa;&#xa;&#xa;
                    </mxGeometry>
                    &#xa;                    &#xa;                    &#xa;                    &#xa;&#xa;&#xa;&#xa;
                </mxCell>
                &#xa;                &#xa;                &#xa;                &#xa;&#xa;&#xa;&#xa;
                <mxCell id="LD_NdJFulE2Uzulx7fiv-25" value="実処理" style="shape=process;whiteSpace=wrap;html=1;backgroundOutline=1;" parent="KE524f0EOoXrqlKiMIF--1" vertex="1">
                    &#xa;                    &#xa;                    &#xa;                    &#xa;&#xa;&#xa;&#xa;
                    <mxGeometry x="500" y="900" width="120" height="60" as="geometry"/>
                    &#xa;                    &#xa;                    &#xa;                    &#xa;&#xa;&#xa;&#xa;
                </mxCell>
                &#xa;                &#xa;                &#xa;                &#xa;&#xa;&#xa;&#xa;
                <mxCell id="LD_NdJFulE2Uzulx7fiv-26" value="処理実行フラグ" style="shape=cylinder3;whiteSpace=wrap;html=1;boundedLbl=1;backgroundOutline=1;size=15;" parent="KE524f0EOoXrqlKiMIF--1" vertex="1">
                    &#xa;                    &#xa;                    &#xa;                    &#xa;&#xa;&#xa;&#xa;
                    <mxGeometry x="980" width="200" height="80" as="geometry"/>
                    &#xa;                    &#xa;                    &#xa;                    &#xa;&#xa;&#xa;&#xa;
                </mxCell>
                &#xa;                &#xa;                &#xa;                &#xa;&#xa;&#xa;&#xa;
                <mxCell id="LD_NdJFulE2Uzulx7fiv-38" style="edgeStyle=orthogonalEdgeStyle;rounded=0;orthogonalLoop=1;jettySize=auto;html=1;endArrow=classic;endFill=1;noEdgeStyle=1;orthogonal=1;" parent="KE524f0EOoXrqlKiMIF--1" source="LD_NdJFulE2Uzulx7fiv-32" target="NwabN-8boyN1eVNhUNNU-8" edge="1">
                    &#xa;                    &#xa;                    &#xa;                    &#xa;&#xa;&#xa;&#xa;
                    <mxGeometry relative="1" as="geometry">
                        &#xa;                        &#xa;                        &#xa;                        &#xa;&#xa;&#xa;&#xa;
                        <Array as="points">
                            &#xa;                            &#xa;                            &#xa;                            &#xa;&#xa;&#xa;&#xa;
                            <mxPoint x="270" y="492"/>
                            &#xa;                            &#xa;                            &#xa;                            &#xa;&#xa;&#xa;&#xa;
                            <mxPoint x="318.75" y="568"/>
                            &#xa;                            &#xa;                            &#xa;                            &#xa;&#xa;&#xa;&#xa;
                        </Array>
                        &#xa;                        &#xa;                        &#xa;                        &#xa;&#xa;&#xa;&#xa;
                    </mxGeometry>
                    &#xa;                    &#xa;                    &#xa;                    &#xa;&#xa;&#xa;&#xa;
                </mxCell>
                &#xa;                &#xa;                &#xa;                &#xa;&#xa;&#xa;&#xa;
                <mxCell id="LD_NdJFulE2Uzulx7fiv-39" value="Yes" style="edgeLabel;html=1;align=center;verticalAlign=middle;resizable=0;points=[];" parent="LD_NdJFulE2Uzulx7fiv-38" vertex="1" connectable="0">
                    &#xa;                    &#xa;                    &#xa;                    &#xa;&#xa;&#xa;&#xa;
                    <mxGeometry x="-0.2455" y="2" relative="1" as="geometry">
                        &#xa;                        &#xa;                        &#xa;                        &#xa;&#xa;&#xa;&#xa;
                        <mxPoint x="-3.289999999999999" y="-19.810000000000002" as="offset"/>
                        &#xa;                        &#xa;                        &#xa;                        &#xa;&#xa;&#xa;&#xa;
                    </mxGeometry>
                    &#xa;                    &#xa;                    &#xa;                    &#xa;&#xa;&#xa;&#xa;
                </mxCell>
                &#xa;                &#xa;                &#xa;                &#xa;&#xa;&#xa;&#xa;
                <mxCell id="LD_NdJFulE2Uzulx7fiv-45" style="edgeStyle=orthogonalEdgeStyle;rounded=0;orthogonalLoop=1;jettySize=auto;html=1;endArrow=classic;endFill=1;noEdgeStyle=1;orthogonal=1;" parent="KE524f0EOoXrqlKiMIF--1" source="LD_NdJFulE2Uzulx7fiv-32" target="LD_NdJFulE2Uzulx7fiv-48" edge="1">
                    &#xa;                    &#xa;                    &#xa;                    &#xa;&#xa;&#xa;&#xa;
                    <mxGeometry relative="1" as="geometry">
                        &#xa;                        &#xa;                        &#xa;                        &#xa;&#xa;&#xa;&#xa;
                        <mxPoint x="560" y="580" as="targetPoint"/>
                        &#xa;                        &#xa;                        &#xa;                        &#xa;&#xa;&#xa;&#xa;
                        <Array as="points">
                            &#xa;                            &#xa;                            &#xa;                            &#xa;&#xa;&#xa;&#xa;
                            <mxPoint x="360" y="492"/>
                            &#xa;                            &#xa;                            &#xa;                            &#xa;&#xa;&#xa;&#xa;
                            <mxPoint x="435" y="530"/>
                            &#xa;                            &#xa;                            &#xa;                            &#xa;&#xa;&#xa;&#xa;
                            <mxPoint x="435" y="690"/>
                            &#xa;                            &#xa;                            &#xa;                            &#xa;&#xa;&#xa;&#xa;
                            <mxPoint x="435" y="690"/>
                            &#xa;                            &#xa;                            &#xa;                            &#xa;&#xa;&#xa;&#xa;
                            <mxPoint x="435" y="850"/>
                            &#xa;                            &#xa;                            &#xa;                            &#xa;&#xa;&#xa;&#xa;
                            <mxPoint x="470" y="850"/>
                            &#xa;                            &#xa;                            &#xa;                            &#xa;&#xa;&#xa;&#xa;
                            <mxPoint x="470" y="1010"/>
                            &#xa;                            &#xa;                            &#xa;                            &#xa;&#xa;&#xa;&#xa;
                            <mxPoint x="375" y="1010"/>
                            &#xa;                            &#xa;                            &#xa;                            &#xa;&#xa;&#xa;&#xa;
                            <mxPoint x="375" y="1170"/>
                            &#xa;                            &#xa;                            &#xa;                            &#xa;&#xa;&#xa;&#xa;
                            <mxPoint x="375" y="1170"/>
                            &#xa;                            &#xa;                            &#xa;                            &#xa;&#xa;&#xa;&#xa;
                            <mxPoint x="375" y="1330"/>
                            &#xa;                            &#xa;                            &#xa;                            &#xa;&#xa;&#xa;&#xa;
                            <mxPoint x="406.25" y="1366"/>
                            &#xa;                            &#xa;                            &#xa;                            &#xa;&#xa;&#xa;&#xa;
                        </Array>
                        &#xa;                        &#xa;                        &#xa;                        &#xa;&#xa;&#xa;&#xa;
                    </mxGeometry>
                    &#xa;                    &#xa;                    &#xa;                    &#xa;&#xa;&#xa;&#xa;
                </mxCell>
                &#xa;                &#xa;                &#xa;                &#xa;&#xa;&#xa;&#xa;
                <mxCell id="LD_NdJFulE2Uzulx7fiv-60" value="No" style="edgeLabel;html=1;align=center;verticalAlign=middle;resizable=0;points=[];" parent="LD_NdJFulE2Uzulx7fiv-45" vertex="1" connectable="0">
                    &#xa;                    &#xa;                    &#xa;                    &#xa;&#xa;&#xa;&#xa;
                    <mxGeometry x="-0.8666" y="-1" relative="1" as="geometry">
                        &#xa;                        &#xa;                        &#xa;                        &#xa;&#xa;&#xa;&#xa;
                        <mxPoint x="4.44" y="-3.1799999999999997" as="offset"/>
                        &#xa;                        &#xa;                        &#xa;                        &#xa;&#xa;&#xa;&#xa;
                    </mxGeometry>
                    &#xa;                    &#xa;                    &#xa;                    &#xa;&#xa;&#xa;&#xa;
                </mxCell>
                &#xa;                &#xa;                &#xa;                &#xa;&#xa;&#xa;&#xa;
                <mxCell id="LD_NdJFulE2Uzulx7fiv-32" value="処理実行フラグ=true" style="rhombus;whiteSpace=wrap;html=1;" parent="KE524f0EOoXrqlKiMIF--1" vertex="1">
                    &#xa;                    &#xa;                    &#xa;                    &#xa;&#xa;&#xa;&#xa;
                    <mxGeometry x="220" y="290" width="190" height="190" as="geometry"/>
                    &#xa;                    &#xa;                    &#xa;                    &#xa;&#xa;&#xa;&#xa;
                </mxCell>
                &#xa;                &#xa;                &#xa;                &#xa;&#xa;&#xa;&#xa;
                <mxCell id="LD_NdJFulE2Uzulx7fiv-41" style="edgeStyle=orthogonalEdgeStyle;rounded=0;orthogonalLoop=1;jettySize=auto;html=1;endArrow=classic;endFill=1;noEdgeStyle=1;orthogonal=1;" parent="KE524f0EOoXrqlKiMIF--1" source="LD_NdJFulE2Uzulx7fiv-36" target="LD_NdJFulE2Uzulx7fiv-40" edge="1">
                    &#xa;                    &#xa;                    &#xa;                    &#xa;&#xa;&#xa;&#xa;
                    <mxGeometry relative="1" as="geometry">
                        &#xa;                        &#xa;                        &#xa;                        &#xa;&#xa;&#xa;&#xa;
                        <Array as="points">
                            &#xa;                            &#xa;                            &#xa;                            &#xa;&#xa;&#xa;&#xa;
                            <mxPoint x="321.25" y="812"/>
                            &#xa;                            &#xa;                            &#xa;                            &#xa;&#xa;&#xa;&#xa;
                            <mxPoint x="323.75" y="888"/>
                            &#xa;                            &#xa;                            &#xa;                            &#xa;&#xa;&#xa;&#xa;
                        </Array>
                        &#xa;                        &#xa;                        &#xa;                        &#xa;&#xa;&#xa;&#xa;
                    </mxGeometry>
                    &#xa;                    &#xa;                    &#xa;                    &#xa;&#xa;&#xa;&#xa;
                </mxCell>
                &#xa;                &#xa;                &#xa;                &#xa;&#xa;&#xa;&#xa;
                <mxCell id="LD_NdJFulE2Uzulx7fiv-36" value="&lt;span&gt;ブックマークの整理&lt;/span&gt;" style="shape=process;whiteSpace=wrap;html=1;backgroundOutline=1;" parent="KE524f0EOoXrqlKiMIF--1" vertex="1">
                    &#xa;                    &#xa;                    &#xa;                    &#xa;&#xa;&#xa;&#xa;
                    <mxGeometry x="261.25" y="740" width="120" height="60" as="geometry"/>
                    &#xa;                    &#xa;                    &#xa;                    &#xa;&#xa;&#xa;&#xa;
                </mxCell>
                &#xa;                &#xa;                &#xa;                &#xa;&#xa;&#xa;&#xa;
                <mxCell id="RLJUSfixIItLZw4vaCke-0" style="edgeStyle=orthogonalEdgeStyle;rounded=0;orthogonalLoop=1;jettySize=auto;html=1;endArrow=classic;endFill=1;noEdgeStyle=1;orthogonal=1;" parent="KE524f0EOoXrqlKiMIF--1" source="LD_NdJFulE2Uzulx7fiv-40" target="LD_NdJFulE2Uzulx7fiv-48" edge="1">
                    &#xa;                    &#xa;                    &#xa;                    &#xa;&#xa;&#xa;&#xa;
                    <mxGeometry relative="1" as="geometry">
                        &#xa;                        &#xa;                        &#xa;                        &#xa;&#xa;&#xa;&#xa;
                        <Array as="points">
                            &#xa;                            &#xa;                            &#xa;                            &#xa;&#xa;&#xa;&#xa;
                            <mxPoint x="323.75" y="972"/>
                            &#xa;                            &#xa;                            &#xa;                            &#xa;&#xa;&#xa;&#xa;
                            <mxPoint x="325" y="1010"/>
                            &#xa;                            &#xa;                            &#xa;                            &#xa;&#xa;&#xa;&#xa;
                            <mxPoint x="325" y="1170"/>
                            &#xa;                            &#xa;                            &#xa;                            &#xa;&#xa;&#xa;&#xa;
                            <mxPoint x="325" y="1170"/>
                            &#xa;                            &#xa;                            &#xa;                            &#xa;&#xa;&#xa;&#xa;
                            <mxPoint x="325" y="1330"/>
                            &#xa;                            &#xa;                            &#xa;                            &#xa;&#xa;&#xa;&#xa;
                            <mxPoint x="378.75" y="1368"/>
                            &#xa;                            &#xa;                            &#xa;                            &#xa;&#xa;&#xa;&#xa;
                        </Array>
                        &#xa;                        &#xa;                        &#xa;                        &#xa;&#xa;&#xa;&#xa;
                    </mxGeometry>
                    &#xa;                    &#xa;                    &#xa;                    &#xa;&#xa;&#xa;&#xa;
                </mxCell>
                &#xa;                &#xa;                &#xa;                &#xa;&#xa;&#xa;&#xa;
                <mxCell id="LD_NdJFulE2Uzulx7fiv-40" value="処理実行フラグ==false" style="rounded=0;whiteSpace=wrap;html=1;" parent="KE524f0EOoXrqlKiMIF--1" vertex="1">
                    &#xa;                    &#xa;                    &#xa;                    &#xa;&#xa;&#xa;&#xa;
                    <mxGeometry x="218.75" y="900" width="210" height="60" as="geometry"/>
                    &#xa;                    &#xa;                    &#xa;                    &#xa;&#xa;&#xa;&#xa;
                </mxCell>
                &#xa;                &#xa;                &#xa;                &#xa;&#xa;&#xa;&#xa;
                <mxCell id="LD_NdJFulE2Uzulx7fiv-42" value="処理実行フラグ==true" style="rounded=0;whiteSpace=wrap;html=1;" parent="KE524f0EOoXrqlKiMIF--1" vertex="1">
                    &#xa;                    &#xa;                    &#xa;                    &#xa;&#xa;&#xa;&#xa;
                    <mxGeometry x="440" y="355" width="210" height="60" as="geometry"/>
                    &#xa;                    &#xa;                    &#xa;                    &#xa;&#xa;&#xa;&#xa;
                </mxCell>
                &#xa;                &#xa;                &#xa;                &#xa;&#xa;&#xa;&#xa;
                <mxCell id="LD_NdJFulE2Uzulx7fiv-43" style="edgeStyle=orthogonalEdgeStyle;rounded=0;orthogonalLoop=1;jettySize=auto;html=1;endArrow=classic;endFill=1;noEdgeStyle=1;orthogonal=1;" parent="KE524f0EOoXrqlKiMIF--1" source="LD_NdJFulE2Uzulx7fiv-24" target="LD_NdJFulE2Uzulx7fiv-42" edge="1">
                    &#xa;                    &#xa;                    &#xa;                    &#xa;&#xa;&#xa;&#xa;
                    <mxGeometry relative="1" as="geometry">
                        &#xa;                        &#xa;                        &#xa;                        &#xa;&#xa;&#xa;&#xa;
                        <mxPoint x="560" y="410" as="sourcePoint"/>
                        &#xa;                        &#xa;                        &#xa;                        &#xa;&#xa;&#xa;&#xa;
                        <mxPoint x="700" y="460" as="targetPoint"/>
                        &#xa;                        &#xa;                        &#xa;                        &#xa;&#xa;&#xa;&#xa;
                        <Array as="points">
                            &#xa;                            &#xa;                            &#xa;                            &#xa;&#xa;&#xa;&#xa;
                            <mxPoint x="545" y="204"/>
                            &#xa;                            &#xa;                            &#xa;                            &#xa;&#xa;&#xa;&#xa;
                            <mxPoint x="545" y="278"/>
                            &#xa;                            &#xa;                            &#xa;                            &#xa;&#xa;&#xa;&#xa;
                        </Array>
                        &#xa;                        &#xa;                        &#xa;                        &#xa;&#xa;&#xa;&#xa;
                    </mxGeometry>
                    &#xa;                    &#xa;                    &#xa;                    &#xa;&#xa;&#xa;&#xa;
                </mxCell>
                &#xa;                &#xa;                &#xa;                &#xa;&#xa;&#xa;&#xa;
                <mxCell id="LD_NdJFulE2Uzulx7fiv-44" value="Yes" style="edgeLabel;html=1;align=center;verticalAlign=middle;resizable=0;points=[];" parent="LD_NdJFulE2Uzulx7fiv-43" vertex="1" connectable="0">
                    &#xa;                    &#xa;                    &#xa;                    &#xa;&#xa;&#xa;&#xa;
                    <mxGeometry x="-0.3882" y="3" relative="1" as="geometry">
                        &#xa;                        &#xa;                        &#xa;                        &#xa;&#xa;&#xa;&#xa;
                        <mxPoint x="-3" y="-0.8299999999999983" as="offset"/>
                        &#xa;                        &#xa;                        &#xa;                        &#xa;&#xa;&#xa;&#xa;
                    </mxGeometry>
                    &#xa;                    &#xa;                    &#xa;                    &#xa;&#xa;&#xa;&#xa;
                </mxCell>
                &#xa;                &#xa;                &#xa;                &#xa;&#xa;&#xa;&#xa;
                <mxCell id="LD_NdJFulE2Uzulx7fiv-48" value="&lt;span&gt;監視処理（常駐）&lt;/span&gt;" style="ellipse;whiteSpace=wrap;html=1;" parent="KE524f0EOoXrqlKiMIF--1" vertex="1">
                    &#xa;                    &#xa;                    &#xa;                    &#xa;&#xa;&#xa;&#xa;
                    <mxGeometry x="360" y="1380" width="120" height="80" as="geometry"/>
                    &#xa;                    &#xa;                    &#xa;                    &#xa;&#xa;&#xa;&#xa;
                </mxCell>
                &#xa;                &#xa;                &#xa;                &#xa;&#xa;&#xa;&#xa;
                <mxCell id="LD_NdJFulE2Uzulx7fiv-59" style="edgeStyle=orthogonalEdgeStyle;rounded=0;orthogonalLoop=1;jettySize=auto;html=1;endArrow=classic;endFill=1;noEdgeStyle=1;orthogonal=1;" parent="KE524f0EOoXrqlKiMIF--1" source="LD_NdJFulE2Uzulx7fiv-56" target="NwabN-8boyN1eVNhUNNU-10" edge="1">
                    &#xa;                    &#xa;                    &#xa;                    &#xa;&#xa;&#xa;&#xa;
                    <mxGeometry relative="1" as="geometry">
                        &#xa;                        &#xa;                        &#xa;                        &#xa;&#xa;&#xa;&#xa;
                        <Array as="points">
                            &#xa;                            &#xa;                            &#xa;                            &#xa;&#xa;&#xa;&#xa;
                            <mxPoint x="497.5" y="1132"/>
                            &#xa;                            &#xa;                            &#xa;                            &#xa;&#xa;&#xa;&#xa;
                            <mxPoint x="465" y="1208"/>
                            &#xa;                            &#xa;                            &#xa;                            &#xa;&#xa;&#xa;&#xa;
                        </Array>
                        &#xa;                        &#xa;                        &#xa;                        &#xa;&#xa;&#xa;&#xa;
                    </mxGeometry>
                    &#xa;                    &#xa;                    &#xa;                    &#xa;&#xa;&#xa;&#xa;
                </mxCell>
                &#xa;                &#xa;                &#xa;                &#xa;&#xa;&#xa;&#xa;
                <mxCell id="LD_NdJFulE2Uzulx7fiv-56" value="処理を実施した奴を削除" style="rounded=0;whiteSpace=wrap;html=1;" parent="KE524f0EOoXrqlKiMIF--1" vertex="1">
                    &#xa;                    &#xa;                    &#xa;                    &#xa;&#xa;&#xa;&#xa;
                    <mxGeometry x="417.5" y="1060" width="160" height="60" as="geometry"/>
                    &#xa;                    &#xa;                    &#xa;                    &#xa;&#xa;&#xa;&#xa;
                </mxCell>
                &#xa;                &#xa;                &#xa;                &#xa;&#xa;&#xa;&#xa;
                <mxCell id="LD_NdJFulE2Uzulx7fiv-57" value="テキストの処理上のブックマーク" style="shape=cylinder3;whiteSpace=wrap;html=1;boundedLbl=1;backgroundOutline=1;size=15;" parent="KE524f0EOoXrqlKiMIF--1" vertex="1">
                    &#xa;                    &#xa;                    &#xa;                    &#xa;&#xa;&#xa;&#xa;
                    <mxGeometry x="1240" width="220" height="80" as="geometry"/>
                    &#xa;                    &#xa;                    &#xa;                    &#xa;&#xa;&#xa;&#xa;
                </mxCell>
                &#xa;                &#xa;                &#xa;                &#xa;&#xa;&#xa;&#xa;
                <mxCell id="NwabN-8boyN1eVNhUNNU-1" style="edgeStyle=orthogonalEdgeStyle;rounded=0;orthogonalLoop=1;jettySize=auto;html=1;noEdgeStyle=1;orthogonal=1;" parent="KE524f0EOoXrqlKiMIF--1" source="0-GN8s0cx3Jfl2CSVOtY-3" target="LD_NdJFulE2Uzulx7fiv-25" edge="1">
                    &#xa;                    &#xa;                    &#xa;                    &#xa;&#xa;&#xa;&#xa;
                    <mxGeometry relative="1" as="geometry">
                        &#xa;                        &#xa;                        &#xa;                        &#xa;&#xa;&#xa;&#xa;
                        <mxPoint x="525" y="800" as="sourcePoint"/>
                        &#xa;                        &#xa;                        &#xa;                        &#xa;&#xa;&#xa;&#xa;
                        <Array as="points">
                            &#xa;                            &#xa;                            &#xa;                            &#xa;&#xa;&#xa;&#xa;
                            <mxPoint x="525" y="812"/>
                            &#xa;                            &#xa;                            &#xa;                            &#xa;&#xa;&#xa;&#xa;
                            <mxPoint x="560" y="888"/>
                            &#xa;                            &#xa;                            &#xa;                            &#xa;&#xa;&#xa;&#xa;
                        </Array>
                        &#xa;                        &#xa;                        &#xa;                        &#xa;&#xa;&#xa;&#xa;
                    </mxGeometry>
                    &#xa;                    &#xa;                    &#xa;                    &#xa;&#xa;&#xa;&#xa;
                </mxCell>
                &#xa;                &#xa;                &#xa;                &#xa;&#xa;&#xa;&#xa;
                <mxCell id="NwabN-8boyN1eVNhUNNU-7" style="edgeStyle=orthogonalEdgeStyle;rounded=0;orthogonalLoop=1;jettySize=auto;html=1;noEdgeStyle=1;orthogonal=1;" parent="KE524f0EOoXrqlKiMIF--1" source="NwabN-8boyN1eVNhUNNU-6" target="0-GN8s0cx3Jfl2CSVOtY-3" edge="1">
                    &#xa;                    &#xa;                    &#xa;                    &#xa;&#xa;&#xa;&#xa;
                    <mxGeometry relative="1" as="geometry">
                        &#xa;                        &#xa;                        &#xa;                        &#xa;&#xa;&#xa;&#xa;
                        <mxPoint x="525" y="740" as="targetPoint"/>
                        &#xa;                        &#xa;                        &#xa;                        &#xa;&#xa;&#xa;&#xa;
                        <Array as="points">
                            &#xa;                            &#xa;                            &#xa;                            &#xa;&#xa;&#xa;&#xa;
                            <mxPoint x="525" y="652"/>
                            &#xa;                            &#xa;                            &#xa;                            &#xa;&#xa;&#xa;&#xa;
                            <mxPoint x="525" y="728"/>
                            &#xa;                            &#xa;                            &#xa;                            &#xa;&#xa;&#xa;&#xa;
                        </Array>
                        &#xa;                        &#xa;                        &#xa;                        &#xa;&#xa;&#xa;&#xa;
                    </mxGeometry>
                    &#xa;                    &#xa;                    &#xa;                    &#xa;&#xa;&#xa;&#xa;
                </mxCell>
                &#xa;                &#xa;                &#xa;                &#xa;&#xa;&#xa;&#xa;
                <mxCell id="NwabN-8boyN1eVNhUNNU-6" value="DB取得" style="whiteSpace=wrap;html=1;" parent="KE524f0EOoXrqlKiMIF--1" vertex="1">
                    &#xa;                    &#xa;                    &#xa;                    &#xa;&#xa;&#xa;&#xa;
                    <mxGeometry x="465" y="580" width="120" height="60" as="geometry"/>
                    &#xa;                    &#xa;                    &#xa;                    &#xa;&#xa;&#xa;&#xa;
                </mxCell>
                &#xa;                &#xa;                &#xa;                &#xa;&#xa;&#xa;&#xa;
                <mxCell id="NwabN-8boyN1eVNhUNNU-9" style="edgeStyle=orthogonalEdgeStyle;rounded=0;orthogonalLoop=1;jettySize=auto;html=1;noEdgeStyle=1;orthogonal=1;" parent="KE524f0EOoXrqlKiMIF--1" source="NwabN-8boyN1eVNhUNNU-8" target="LD_NdJFulE2Uzulx7fiv-36" edge="1">
                    &#xa;                    &#xa;                    &#xa;                    &#xa;&#xa;&#xa;&#xa;
                    <mxGeometry relative="1" as="geometry">
                        &#xa;                        &#xa;                        &#xa;                        &#xa;&#xa;&#xa;&#xa;
                        <Array as="points">
                            &#xa;                            &#xa;                            &#xa;                            &#xa;&#xa;&#xa;&#xa;
                            <mxPoint x="318.75" y="652"/>
                            &#xa;                            &#xa;                            &#xa;                            &#xa;&#xa;&#xa;&#xa;
                            <mxPoint x="321.25" y="728"/>
                            &#xa;                            &#xa;                            &#xa;                            &#xa;&#xa;&#xa;&#xa;
                        </Array>
                        &#xa;                        &#xa;                        &#xa;                        &#xa;&#xa;&#xa;&#xa;
                    </mxGeometry>
                    &#xa;                    &#xa;                    &#xa;                    &#xa;&#xa;&#xa;&#xa;
                </mxCell>
                &#xa;                &#xa;                &#xa;                &#xa;&#xa;&#xa;&#xa;
                <mxCell id="NwabN-8boyN1eVNhUNNU-8" value="DB取得" style="whiteSpace=wrap;html=1;" parent="KE524f0EOoXrqlKiMIF--1" vertex="1">
                    &#xa;                    &#xa;                    &#xa;                    &#xa;&#xa;&#xa;&#xa;
                    <mxGeometry x="258.75" y="580" width="120" height="60" as="geometry"/>
                    &#xa;                    &#xa;                    &#xa;                    &#xa;&#xa;&#xa;&#xa;
                </mxCell>
                &#xa;                &#xa;                &#xa;                &#xa;&#xa;&#xa;&#xa;
                <mxCell id="NwabN-8boyN1eVNhUNNU-11" style="edgeStyle=orthogonalEdgeStyle;rounded=0;orthogonalLoop=1;jettySize=auto;html=1;noEdgeStyle=1;orthogonal=1;" parent="KE524f0EOoXrqlKiMIF--1" source="NwabN-8boyN1eVNhUNNU-10" target="LD_NdJFulE2Uzulx7fiv-48" edge="1">
                    &#xa;                    &#xa;                    &#xa;                    &#xa;&#xa;&#xa;&#xa;
                    <mxGeometry relative="1" as="geometry">
                        &#xa;                        &#xa;                        &#xa;                        &#xa;&#xa;&#xa;&#xa;
                        <mxPoint x="610" y="1190" as="targetPoint"/>
                        &#xa;                        &#xa;                        &#xa;                        &#xa;&#xa;&#xa;&#xa;
                        <Array as="points">
                            &#xa;                            &#xa;                            &#xa;                            &#xa;&#xa;&#xa;&#xa;
                            <mxPoint x="465" y="1292"/>
                            &#xa;                            &#xa;                            &#xa;                            &#xa;&#xa;&#xa;&#xa;
                            <mxPoint x="433.75" y="1366"/>
                            &#xa;                            &#xa;                            &#xa;                            &#xa;&#xa;&#xa;&#xa;
                        </Array>
                        &#xa;                        &#xa;                        &#xa;                        &#xa;&#xa;&#xa;&#xa;
                    </mxGeometry>
                    &#xa;                    &#xa;                    &#xa;                    &#xa;&#xa;&#xa;&#xa;
                </mxCell>
                &#xa;                &#xa;                &#xa;                &#xa;&#xa;&#xa;&#xa;
                <mxCell id="NwabN-8boyN1eVNhUNNU-10" value="DB書込" style="whiteSpace=wrap;html=1;" parent="KE524f0EOoXrqlKiMIF--1" vertex="1">
                    &#xa;                    &#xa;                    &#xa;                    &#xa;&#xa;&#xa;&#xa;
                    <mxGeometry x="405" y="1220" width="120" height="60" as="geometry"/>
                    &#xa;                    &#xa;                    &#xa;                    &#xa;&#xa;&#xa;&#xa;
                </mxCell>
                &#xa;                &#xa;                &#xa;                &#xa;&#xa;&#xa;&#xa;
                <mxCell id="0-GN8s0cx3Jfl2CSVOtY-3" value="処理の種類を分類" style="whiteSpace=wrap;html=1;" parent="KE524f0EOoXrqlKiMIF--1" vertex="1">
                    &#xa;                    &#xa;                    &#xa;                    &#xa;&#xa;&#xa;&#xa;
                    <mxGeometry x="465" y="740" width="120" height="60" as="geometry"/>
                    &#xa;                    &#xa;                    &#xa;                    &#xa;&#xa;&#xa;&#xa;
                </mxCell>
                &#xa;                &#xa;                &#xa;                &#xa;&#xa;&#xa;&#xa;
                <mxCell id="LD_NdJFulE2Uzulx7fiv-51" value="Trigger" style="ellipse;whiteSpace=wrap;html=1;" parent="KE524f0EOoXrqlKiMIF--1" vertex="1">
                    &#xa;                    &#xa;                    &#xa;                    &#xa;&#xa;&#xa;&#xa;
                    <mxGeometry x="20" width="120" height="80" as="geometry"/>
                    &#xa;                    &#xa;                    &#xa;                    &#xa;&#xa;&#xa;&#xa;
                </mxCell>
                &#xa;                &#xa;                &#xa;                &#xa;&#xa;&#xa;&#xa;
                <mxCell id="LD_NdJFulE2Uzulx7fiv-54" value="処理の種類をDBに追加" style="rounded=0;whiteSpace=wrap;html=1;" parent="KE524f0EOoXrqlKiMIF--1" vertex="1">
                    &#xa;                    &#xa;                    &#xa;                    &#xa;&#xa;&#xa;&#xa;
                    <mxGeometry y="180" width="160" height="60" as="geometry"/>
                    &#xa;                    &#xa;                    &#xa;                    &#xa;&#xa;&#xa;&#xa;
                </mxCell>
                &#xa;                &#xa;                &#xa;                &#xa;&#xa;&#xa;&#xa;
                <mxCell id="LD_NdJFulE2Uzulx7fiv-53" style="edgeStyle=orthogonalEdgeStyle;rounded=0;orthogonalLoop=1;jettySize=auto;html=1;endArrow=classic;endFill=1;noEdgeStyle=1;orthogonal=1;" parent="KE524f0EOoXrqlKiMIF--1" source="LD_NdJFulE2Uzulx7fiv-51" target="LD_NdJFulE2Uzulx7fiv-54" edge="1">
                    &#xa;                    &#xa;                    &#xa;                    &#xa;&#xa;&#xa;&#xa;
                    <mxGeometry x="-420" y="110" as="geometry">
                        &#xa;                        &#xa;                        &#xa;                        &#xa;&#xa;&#xa;&#xa;
                        <Array as="points">
                            &#xa;                            &#xa;                            &#xa;                            &#xa;&#xa;&#xa;&#xa;
                            <mxPoint x="80" y="92"/>
                            &#xa;                            &#xa;                            &#xa;                            &#xa;&#xa;&#xa;&#xa;
                            <mxPoint x="80" y="168"/>
                            &#xa;                            &#xa;                            &#xa;                            &#xa;&#xa;&#xa;&#xa;
                        </Array>
                        &#xa;                        &#xa;                        &#xa;                        &#xa;&#xa;&#xa;&#xa;
                        <mxPoint x="-315" y="310" as="targetPoint"/>
                        &#xa;                        &#xa;                        &#xa;                        &#xa;&#xa;&#xa;&#xa;
                    </mxGeometry>
                    &#xa;                    &#xa;                    &#xa;                    &#xa;&#xa;&#xa;&#xa;
                </mxCell>
                &#xa;                &#xa;                &#xa;                &#xa;&#xa;&#xa;&#xa;
                <mxCell id="XrjPTK3_Exc7R1JIzXh5-0" value="&lt;span&gt;一時的なnode変数&lt;/span&gt;" style="shape=cylinder3;whiteSpace=wrap;html=1;boundedLbl=1;backgroundOutline=1;size=15;" parent="KE524f0EOoXrqlKiMIF--1" vertex="1">
                    &#xa;                    &#xa;                    &#xa;                    &#xa;&#xa;&#xa;&#xa;
                    <mxGeometry x="1240" y="140" width="180" height="70" as="geometry"/>
                    &#xa;                    &#xa;                    &#xa;                    &#xa;&#xa;&#xa;&#xa;
                </mxCell>
                &#xa;                &#xa;                &#xa;                &#xa;&#xa;&#xa;&#xa;
            </root>
            &#xa;            &#xa;            &#xa;            &#xa;&#xa;&#xa;&#xa;
        </mxGraphModel>
        &#xa;        &#xa;        &#xa;        &#xa;&#xa;&#xa;&#xa;
    </diagram>
</mxfile>